<svg id="Layer_5" enable-background="new 0 0 64 64" height="512" viewBox="0 0 64 64" width="512" xmlns="http://www.w3.org/2000/svg"><g><g><g><path d="m16.39 18.92 2.29 5.33c.21.49.32 1.03.32 1.57v.18c0 1.1-.45 2.1-1.17 2.83-.73.72-1.73 1.17-2.83 1.17-2.21 0-4-1.79-4-4v-.18c0-.54.11-1.08.32-1.57l2.29-5.33c.24-.56.78-.92 1.39-.92s1.15.36 1.39.92z" fill="#ff826e"/></g><g><path d="m35.39 2.92 2.29 5.33c.21.49.32 1.03.32 1.57v.18c0 1.1-.45 2.1-1.17 2.83-.73.72-1.73 1.17-2.83 1.17-2.21 0-4-1.79-4-4v-.18c0-.54.11-1.08.32-1.57l2.29-5.33c.24-.56.78-.92 1.39-.92s1.15.36 1.39.92z" fill="#ff826e"/></g><g><path d="m48.53 53.97c.33.6.82 1.1 1.41 1.46-.16.18-.29.38-.41.59l-.03-.02h-2.5c-1.22 0-2.36.37-3.32 1h-16.75c.69-1.29 1.07-2.77 1.07-4.34 0-.44-.03-.88-.09-1.32l-1.91-13.34c0-1.06-1.14-2.02-3-2.74v-13.26c0 2.21 4.92 4 11 4s11-1.79 11-4v18.54c-1.2.69-2 1.98-2 3.46 0 1.2.53 2.28 1.37 3h-2.37c-3.31 0-6 2.69-6 6h6c.99 0 1.93-.24 2.75-.67.72 1.01 1.91 1.67 3.25 1.67.18 0 .36-.01.53-.03z" fill="#fcd770"/></g><g><ellipse cx="34" cy="22" fill="#ffeaa7" rx="11" ry="4"/></g><g><path d="m26 38 1.91 13.34c.06.44.09.88.09 1.32 0 1.57-.38 3.05-1.07 4.34-1.56 2.97-4.68 5-8.27 5h-7.32c-2.58 0-4.92-1.04-6.6-2.74-1.7-1.68-2.74-4.02-2.74-6.6 0-.44.03-.88.09-1.32l1.91-13.34c0 2.21 4.92 4 11 4s11-1.79 11-4z" fill="#fcd770"/></g><g><path d="m15 34c3.16 0 6 .48 8 1.26 1.86.72 3 1.68 3 2.74 0 2.21-4.92 4-11 4s-11-1.79-11-4 4.92-4 11-4z" fill="#ffeaa7"/></g><g><path d="m49.53 56.02c-.34.58-.53 1.26-.53 1.98 0 1.19.52 2.26 1.34 2.98-.95.65-2.1 1.02-3.34 1.02h-6c0-2.09 1.07-3.92 2.68-5 .96-.63 2.1-1 3.32-1h2.5z" fill="#b4dd7f"/></g><g><path d="m44.37 47c.17.17.37.31.57.43-.59.69-.94 1.59-.94 2.57 0 .87.28 1.67.75 2.33-.82.43-1.76.67-2.75.67h-6c0-3.31 2.69-6 6-6z" fill="#b4dd7f"/></g><g><path d="m51.73 48c.17-.29.27-.64.27-1 0-.81-.49-1.51-1.18-1.82.12-.37.18-.77.18-1.18 0-1.26-.58-2.39-1.5-3.12.68-.55 1.55-.88 2.5-.88 2.21 0 4 1.79 4 4 0 .4-.08.79-.19 1.16.73.72 1.19 1.73 1.19 2.84-.95 0-1.82.33-2.5.88-.69-.55-1.56-.88-2.5-.88-.09 0-.18 0-.27.01z" fill="#ff826e"/></g><g><path d="m48 46c-1.23 0-2.33.55-3.06 1.43-.2-.12-.4-.26-.57-.43-.84-.72-1.37-1.8-1.37-3 0-1.48.8-2.77 2-3.46.59-.34 1.27-.54 2-.54.94 0 1.81.33 2.5.88.92.73 1.5 1.86 1.5 3.12 0 .41-.06.81-.18 1.18-.25-.12-.53-.18-.82-.18-.74 0-1.39.41-1.74 1.01-.08-.01-.17-.01-.26-.01z" fill="#ff826e"/></g><g><path d="m48 52c0 .71.19 1.39.53 1.97-.17.02-.35.03-.53.03-1.34 0-2.53-.66-3.25-1.67-.47-.66-.75-1.46-.75-2.33 0-.98.35-1.88.94-2.57.73-.88 1.83-1.43 3.06-1.43.09 0 .18 0 .26.01-.17.29-.26.63-.26.99 0 .91.61 1.68 1.45 1.92-.89.74-1.45 1.84-1.45 3.08z" fill="#ff826e"/></g><g><path d="m60.81 53.16c.11-.37.19-.76.19-1.16 0-2.21-1.79-4-4-4-.95 0-1.82.33-2.5.88-.69-.55-1.56-.88-2.5-.88-.09 0-.18 0-.27.01-.86.06-1.65.39-2.28.91-.89.74-1.45 1.84-1.45 3.08 0 .71.19 1.39.53 1.97.33.6.82 1.1 1.41 1.46-.16.18-.29.38-.41.59-.34.58-.53 1.26-.53 1.98 0 1.19.52 2.26 1.34 2.98.71.64 1.64 1.02 2.66 1.02 1.58 0 2.95-.92 3.59-2.25h.01c.43.16.91.25 1.4.25 2.21 0 4-1.79 4-4 0-1.11-.46-2.12-1.19-2.84z" fill="#ff826e"/></g><g><path d="m55.82 53.18c.69.31 1.18 1.01 1.18 1.82 0 .46-.15.88-.42 1.22-.36.47-.94.78-1.58.78-1.1 0-2-.9-2-2 0-.36.09-.7.26-.99.35-.6 1-1.01 1.74-1.01.29 0 .57.06.82.18z" fill="#fc6e51"/></g><g><path d="m52 47c0 .36-.1.71-.27 1v.01c-.86.06-1.65.39-2.28.91-.84-.24-1.45-1.01-1.45-1.92 0-.36.09-.7.26-.99.35-.6 1-1.01 1.74-1.01.29 0 .57.06.82.18.69.31 1.18 1.01 1.18 1.82z" fill="#fc6e51"/></g></g><path d="m61.909 52.884c.061-.305.091-.598.091-.884 0-2.444-1.766-4.476-4.087-4.908-.148-.807-.487-1.563-1.004-2.208.061-.305.091-.598.091-.884 0-2.757-2.243-5-5-5-.886 0-1.754.245-2.514.688-.736-.426-1.577-.688-2.486-.688-.342 0-.677.035-1 .101v-17.101c0-3.099-5.38-4.801-11-4.982v-2.119c2.279-.465 4-2.484 4-4.899v-.179c0-.681-.136-1.344-.404-1.97l-2.283-5.327c-.397-.925-1.305-1.524-2.313-1.524s-1.916.599-2.313 1.524l-2.283 5.327c-.268.626-.404 1.289-.404 1.97v.179c0 2.414 1.721 4.434 4 4.899v2.119c-5.62.181-11 1.883-11 4.982v11.876c-1.781-.499-3.87-.789-6-.858v-2.119c2.279-.465 4-2.484 4-4.899v-.179c0-.681-.136-1.344-.404-1.97l-2.283-5.327c-.397-.925-1.305-1.524-2.313-1.524s-1.916.599-2.313 1.524l-2.283 5.327c-.268.626-.404 1.289-.404 1.97v.179c0 2.414 1.721 4.434 4 4.899v2.119c-5.532.178-10.82 1.833-10.984 4.841l-.006-.001-1.906 13.344c-.069.482-.104.973-.104 1.462 0 5.699 4.637 10.336 10.336 10.336h7.327c3.746 0 7.022-2.009 8.836-5h13.764c-.793 1.135-1.263 2.513-1.263 4v1h7c1.149 0 2.26-.292 3.264-.824.787.518 1.725.824 2.736.824 1.671 0 3.144-.831 4.052-2.094.311.059.627.094.948.094 2.757 0 5-2.243 5-5 0-1.146-.384-2.233-1.091-3.116zm-6.909 1.116c.551 0 1 .449 1 1s-.449 1-1 1-1-.449-1-1 .449-1 1-1zm-2.24-.976c-1.089.053-2.078.454-2.876 1.097-.56-.556-.884-1.307-.884-2.121 0-1.654 1.346-3 3-3s3 1.346 3 3c-.894 0-1.69.401-2.24 1.024zm-9.336-5.024c-.27.614-.424 1.288-.424 2 0 .639.132 1.246.351 1.809-.436.122-.886.191-1.351.191h-4.899c.464-2.279 2.485-4 4.899-4zm1.576 2c0-1.302.861-2.408 2.015-2.823.046.756.37 1.454.892 1.966-.568.812-.907 1.794-.907 2.857 0 .285.033.565.081.841-1.203-.391-2.081-1.509-2.081-2.841zm4-3c0-.551.449-1 1-1s1 .449 1 1c0 .036-.01.069-.013.104-.584.121-1.124.356-1.615.661-.226-.186-.372-.461-.372-.765zm6-3c0 .261-.047.536-.147.866l-.175.578.43.424c.366.361.613.803.755 1.281-.483.114-.948.289-1.377.539-.462-.267-.959-.479-1.499-.588.001-.034.013-.066.013-.1 0-.909-.415-1.714-1.055-2.265.036-.243.055-.488.055-.735 0-1.063-.339-2.044-.906-2.855.29-.092.593-.145.906-.145 1.654 0 3 1.346 3 3zm-5 0c-.894 0-1.69.401-2.24 1.024-1.089.053-2.078.454-2.876 1.097-.56-.556-.884-1.307-.884-2.121 0-1.654 1.346-3 3-3s3 1.346 3 3zm-19-34v-.179c0-.409.082-.806.242-1.182l2.283-5.326c.163-.381.787-.38.95 0l2.283 5.326c.16.376.242.773.242 1.182v.179c0 1.302-.839 2.402-2 2.816v-3.816h-2v3.816c-1.161-.414-2-1.514-2-2.816zm2 9.019v3.981h2v-3.981c5.449.186 9 1.855 9 2.981 0 1.194-3.988 3-10 3s-10-1.806-10-3c0-1.127 3.551-2.796 9-2.981zm-21 6.981v-.179c0-.409.082-.806.242-1.182l2.283-5.326c.163-.381.787-.38.95 0l2.283 5.326c.16.376.242.773.242 1.182v.179c0 1.302-.839 2.402-2 2.816v-3.816h-2v3.816c-1.161-.414-2-1.514-2-2.816zm2 9.019v3.981h2v-3.981c5.449.186 9 1.855 9 2.981 0 1.194-3.988 3-10 3s-10-1.806-10-3c0-1.127 3.551-2.796 9-2.981zm4.664 25.981h-7.327c-4.597 0-8.337-3.74-8.337-8.336 0-.394.028-.791.083-1.179l1.548-10.839c2.196 1.552 6.298 2.354 10.369 2.354s8.173-.802 10.368-2.354l1.548 10.839c.056.388.084.785.084 1.179 0 4.596-3.74 8.336-8.336 8.336zm10.232-9.798-1.906-13.344-.006.001c-.075-1.38-1.221-2.477-2.984-3.275v-9.703c2.265 1.396 6.143 2.119 10 2.119s7.735-.723 10-2.119v15.144c-1.207.914-2 2.348-2 3.974 0 .698.154 1.376.429 2h-.429c-3.86 0-7 3.14-7 7v1h7c.847 0 1.691-.157 2.48-.455.904.899 2.148 1.456 3.52 1.456h.005-.005-1c-1.312 0-2.536.369-3.587 1h-14.976c.359-1.048.563-2.168.563-3.336 0-.489-.035-.98-.104-1.462zm13.205 9.798c.464-2.279 2.485-4 4.899-4h1.101c-.066.323-.101.658-.101 1 0 .979.293 1.887.782 2.659-.566.216-1.165.341-1.782.341zm10.899 0c-1.654 0-3-1.346-3-3 0-1.304.862-2.412 2.018-2.825.092 1.571 1.388 2.825 2.982 2.825.345 0 .671-.07.98-.178.003.06.02.117.02.178 0 1.654-1.346 3-3 3zm5-2c-.034 0-.066-.008-.1-.009.065-.32.1-.652.1-.991 0-.592-.102-1.166-.302-1.712.188-.392.302-.825.302-1.288 0-.909-.415-1.714-1.055-2.265.036-.243.055-.488.055-.735 0-1.063-.339-2.044-.906-2.855.29-.092.593-.145.906-.145 1.654 0 3 1.346 3 3 0 .261-.047.536-.147.866l-.175.578.43.424c.575.569.892 1.326.892 2.132 0 1.654-1.346 3-3 3z"/></g></svg>