<svg data-v-423bf9ae="" xmlns="http://www.w3.org/2000/svg" viewBox="0 0 664 90" class="iconLeft"><!----><!----><!----><g data-v-423bf9ae="" id="a607ce32-ba70-4276-ae5e-951edeb9d609" fill="#000000" transform="matrix(3.259098005489558,0,0,3.259098005489558,119.18676725427969,12.686040426430424)"><path d="M6.13 3.99L6.13 3.99Q6.36 4.06 6.34 4.28L6.34 4.28L6.34 4.28Q5.95 8.04 5.19 12.11L5.19 12.11L5.19 12.11Q5.14 12.38 4.80 12.56L4.80 12.56L4.80 12.56Q4.47 12.74 4.13 12.74L4.13 12.74L4.13 12.74Q3.92 12.74 3.79 12.65L3.79 12.65L3.79 12.65Q3.67 12.56 3.71 12.39L3.71 12.39L3.71 12.39Q4.05 10.93 4.27 9.41L4.27 9.41L4.27 9.41Q4.49 7.88 4.70 5.91L4.70 5.91L4.70 5.91Q3.56 6.97 2.41 8.23L2.41 8.23L1.64 12.49L1.64 12.49Q1.58 12.75 1.23 12.95L1.23 12.95L1.23 12.95Q0.88 13.15 0.53 13.15L0.53 13.15L0.53 13.15Q0.32 13.15 0.21 13.05L0.21 13.05L0.21 13.05Q0.10 12.96 0.13 12.78L0.13 12.78L0.81 8.93L0.81 8.93Q0.64 8.89 0.64 8.74L0.64 8.74L0.64 8.74Q0.64 8.62 0.77 8.46L0.77 8.46L0.94 8.23L2.20 1.39L2.20 1.39Q2.24 1.13 2.59 0.95L2.59 0.95L2.59 0.95Q2.94 0.77 3.28 0.77L3.28 0.77L3.28 0.77Q3.47 0.77 3.58 0.85L3.58 0.85L3.58 0.85Q3.70 0.94 3.67 1.09L3.67 1.09L2.77 6.16L2.77 6.16Q3.81 5.12 5.08 4.19L5.08 4.19L5.08 4.19Q5.49 3.91 5.84 3.91L5.84 3.91L5.84 3.91Q6.01 3.91 6.13 3.99L6.13 3.99L6.13 3.99ZM8.51 10.51L8.51 10.51Q8.48 10.68 8.48 10.75L8.48 10.75L8.48 10.75Q8.48 11.31 9.03 11.31L9.03 11.31L9.03 11.31Q9.35 11.31 9.81 11.13L9.81 11.13L9.81 11.13Q10.23 10.96 11.37 10.42L11.37 10.42L11.37 10.42Q11.40 10.07 11.43 9.74L11.43 9.74L11.43 9.74Q11.47 9.41 11.49 9.14L11.49 9.14L11.59 8.18L11.59 8.18Q10.63 8.64 10.15 8.90L10.15 8.90L10.15 8.90Q9.45 9.31 9.03 9.67L9.03 9.67L9.03 9.67Q8.61 10.02 8.51 10.51L8.51 10.51ZM12.15 3.92L12.15 3.92Q12.78 3.92 13.00 4.23L13.00 4.23L13.00 4.23Q13.22 4.55 13.22 5.15L13.22 5.15L13.20 5.54L13.20 5.54Q13.15 6.57 12.95 8.54L12.95 8.54L12.95 8.54Q12.91 8.82 12.85 9.48L12.85 9.48L12.85 9.48Q12.80 9.88 12.75 10.14L12.75 10.14L12.75 10.14Q12.91 10.22 12.91 10.36L12.91 10.36L12.91 10.36Q12.91 10.46 12.81 10.65L12.81 10.65L12.75 10.72L12.67 10.81L12.67 10.81Q12.57 11.52 12.57 12.03L12.57 12.03L12.57 12.03Q12.77 12.14 12.77 12.29L12.77 12.29L12.77 12.29Q12.77 12.53 12.42 12.80L12.42 12.80L12.42 12.80Q12.32 12.87 12.19 12.94L12.19 12.94L12.19 12.94Q12.10 12.99 11.92 13.03L11.92 13.03L11.92 13.03Q11.75 13.08 11.58 13.08L11.58 13.08L11.58 13.08Q11.06 13.08 11.10 12.70L11.10 12.70L11.21 11.52L11.21 11.52Q9.34 12.42 8.33 12.42L8.33 12.42L8.33 12.42Q7.06 12.42 7.06 11.05L7.06 11.05L7.06 11.05Q7.06 9.73 8.42 8.81L8.42 8.81L8.42 8.81Q9.79 7.88 11.69 7.14L11.69 7.14L11.69 7.14Q11.75 6.59 11.77 6.03L11.77 6.03L11.77 6.03Q11.77 5.92 11.79 5.75L11.79 5.75L11.79 5.75Q11.80 5.59 11.80 5.38L11.80 5.38L11.80 5.38Q11.80 5.11 11.76 5.03L11.76 5.03L11.72 4.97L11.70 4.97L11.70 4.97Q11.49 4.97 10.92 5.54L10.92 5.54L10.92 5.54Q10.40 6.05 9.63 7.06L9.63 7.06L9.63 7.06Q9.52 7.21 9.26 7.31L9.26 7.31L9.26 7.31Q9.00 7.41 8.74 7.41L8.74 7.41L8.74 7.41Q8.54 7.41 8.41 7.34L8.41 7.34L8.41 7.34Q8.27 7.27 8.27 7.13L8.27 7.13L8.27 7.13Q8.27 7.01 8.39 6.83L8.39 6.83L8.39 6.83Q10.32 3.92 12.15 3.92L12.15 3.92ZM19.53 4.06L19.53 4.06Q20.09 4.37 20.09 5.36L20.09 5.36L20.09 5.36Q20.09 5.73 20.02 6.17L20.02 6.17L20.02 6.17Q19.95 6.61 19.87 7L19.87 7L19.77 7.56L19.18 11.91L19.18 11.91Q19.46 11.98 19.42 12.26L19.42 12.26L19.42 12.26Q19.26 13.03 18.33 13.24L18.33 13.24L18.19 13.26L18.19 13.26Q17.95 13.26 17.77 13.16L17.77 13.16L17.77 13.16Q17.58 13.06 17.61 12.85L17.61 12.85L17.61 12.85Q18.20 8.60 18.48 6.47L18.48 6.47L18.48 6.47Q18.49 6.41 18.54 6.15L18.54 6.15L18.54 6.15Q18.59 5.88 18.59 5.64L18.59 5.64L18.59 5.64Q18.59 5.19 18.35 5.18L18.35 5.18L18.35 5.18Q18.17 5.15 17.76 5.68L17.76 5.68L17.76 5.68Q17.35 6.20 17.30 6.26L17.30 6.26L17.30 6.26Q16.46 7.21 15.74 8.39L15.74 8.39L15.74 8.39Q15.40 10.43 15.20 11.69L15.20 11.69L15.13 12.14L15.13 12.14Q15.09 12.40 14.74 12.60L14.74 12.60L14.74 12.60Q14.39 12.80 14.06 12.80L14.06 12.80L14.06 12.80Q13.85 12.80 13.73 12.71L13.73 12.71L13.73 12.71Q13.61 12.61 13.64 12.43L13.64 12.43L13.64 12.43Q14.00 10.29 14.21 8.93L14.21 8.93L14.21 8.93Q14.13 8.85 14.13 8.74L14.13 8.74L14.13 8.74Q14.13 8.67 14.17 8.58L14.17 8.58L14.17 8.58Q14.21 8.51 14.25 8.46L14.25 8.46L14.25 8.46Q14.28 8.40 14.31 8.36L14.31 8.36L14.87 4.97L14.87 4.97Q14.91 4.72 15.25 4.54L15.25 4.54L15.25 4.54Q15.58 4.35 15.92 4.35L15.92 4.35L15.92 4.35Q16.13 4.35 16.24 4.44L16.24 4.44L16.24 4.44Q16.35 4.52 16.32 4.69L16.32 4.69L16.32 4.69Q16.25 5.15 16.13 5.88L16.13 5.88L16.72 5.25L16.72 5.25Q17.30 4.66 17.84 4.28L17.84 4.28L17.84 4.28Q18.37 3.91 18.91 3.91L18.91 3.91L18.91 3.91Q19.26 3.91 19.53 4.06L19.53 4.06ZM22.15 11.40L22.15 11.40Q22.41 11.61 22.83 11.61L22.83 11.61L22.83 11.61Q23.32 11.61 24.08 11.28L24.08 11.28L24.08 11.28Q24.53 8.69 24.78 6.19L24.78 6.19L24.75 6.19L24.75 6.19Q24.00 6.19 23.37 6.71L23.37 6.71L23.37 6.71Q22.74 7.22 22.32 7.99L22.32 7.99L22.32 7.99Q21.91 8.76 21.76 9.52L21.76 9.52L21.76 9.52Q21.69 9.87 21.69 10.21L21.69 10.21L21.69 10.21Q21.69 11.03 22.15 11.40L22.15 11.40ZM25.12 1.75L25.12 1.75Q25.13 1.50 25.47 1.31L25.47 1.31L25.47 1.31Q25.80 1.12 26.15 1.12L26.15 1.12L26.15 1.12Q26.59 1.12 26.57 1.44L26.57 1.44L26.57 1.44Q26.33 6.06 25.56 10.98L25.56 10.98L25.56 10.98Q25.79 11.09 25.79 11.27L25.79 11.27L25.79 11.27Q25.79 11.48 25.45 11.68L25.45 11.68L25.37 12.19L25.37 12.19Q25.31 12.46 24.97 12.65L24.97 12.65L24.97 12.65Q24.63 12.84 24.29 12.84L24.29 12.84L24.29 12.84Q24.08 12.84 23.95 12.75L23.95 12.75L23.95 12.75Q23.83 12.66 23.87 12.47L23.87 12.47L23.87 12.47Q23.87 12.40 23.88 12.38L23.88 12.38L23.88 12.38Q22.99 12.66 22.40 12.66L22.40 12.66L22.40 12.66Q21.76 12.66 21.24 12.38L21.24 12.38L21.24 12.38Q20.72 12.11 20.48 11.61L20.48 11.61L20.48 11.61Q20.24 11.10 20.24 10.47L20.24 10.47L20.24 10.47Q20.24 10.25 20.30 9.86L20.30 9.86L20.30 9.86Q20.50 8.72 21.14 7.67L21.14 7.67L21.14 7.67Q21.78 6.62 22.76 5.95L22.76 5.95L22.76 5.95Q23.74 5.28 24.88 5.24L24.88 5.24L24.88 5.24Q25.05 3.32 25.12 1.75L25.12 1.75ZM35.18 3.99L35.18 3.99Q35.11 5.46 35.11 6.62L35.11 6.62L35.11 6.62Q35.11 9.51 35.50 11.76L35.50 11.76L35.50 11.76Q35.56 12.08 35.25 12.31L35.25 12.31L35.25 12.31Q34.94 12.54 34.58 12.54L34.58 12.54L34.58 12.54Q34.37 12.54 34.23 12.45L34.23 12.45L34.23 12.45Q34.09 12.35 34.06 12.15L34.06 12.15L34.06 12.15Q33.70 9.44 33.64 7.08L33.64 7.08L33.64 7.08Q32.97 8.68 32.03 11.56L32.03 11.56L32.03 11.56Q32.02 11.62 31.95 11.72L31.95 11.72L31.95 11.72Q31.82 11.89 31.57 11.98L31.57 11.98L31.57 11.98Q31.32 12.08 31.07 12.08L31.07 12.08L31.07 12.08Q30.87 12.08 30.76 12.03L30.76 12.03L30.76 12.03Q30.58 11.93 30.58 11.76L30.58 11.76L30.58 11.76Q30.58 11.72 30.60 11.61L30.60 11.61L30.60 11.61Q30.62 11.45 30.62 11.16L30.62 11.16L30.62 11.16Q30.62 10.67 30.53 9.74L30.53 9.74L30.48 8.99L30.48 8.99Q30.42 7.62 30.38 6.93L30.38 6.93L30.38 6.93Q29.71 8.16 29.32 8.75L29.32 8.75L29.32 8.75Q28.98 10.53 28.20 12.19L28.20 12.19L28.20 12.19Q28.10 12.39 27.78 12.53L27.78 12.53L27.78 12.53Q27.45 12.67 27.15 12.67L27.15 12.67L27.15 12.67Q26.95 12.67 26.83 12.60L26.83 12.60L26.83 12.60Q26.71 12.53 26.71 12.40L26.71 12.40L26.71 12.40Q26.71 12.32 26.75 12.22L26.75 12.22L26.75 12.22Q27.40 10.82 27.73 9.35L27.73 9.35L27.73 9.35Q27.68 9.30 27.68 9.20L27.68 9.20L27.68 9.20Q27.68 9.06 27.79 8.90L27.79 8.90L27.85 8.81L27.85 8.81Q28.07 7.69 28.07 6.43L28.07 6.43L28.07 6.43Q28.07 5.89 28.03 5.38L28.03 5.38L28.03 5.38Q28.01 5.14 28.35 4.94L28.35 4.94L28.35 4.94Q28.69 4.75 29.04 4.75L29.04 4.75L29.04 4.75Q29.23 4.75 29.36 4.83L29.36 4.83L29.36 4.83Q29.48 4.91 29.50 5.07L29.50 5.07L29.50 5.07Q29.53 5.32 29.55 5.88L29.55 5.88L29.55 5.88Q29.88 5.29 30.24 4.77L30.24 4.77L30.24 4.77Q30.27 4.54 30.58 4.36L30.58 4.36L30.58 4.36Q30.88 4.19 31.22 4.19L31.22 4.19L31.22 4.19Q31.43 4.19 31.58 4.28L31.58 4.28L31.58 4.28Q31.72 4.37 31.74 4.56L31.74 4.56L31.74 4.56Q31.88 6.37 31.93 7.78L31.93 7.78L31.93 7.78Q32.87 5.49 33.80 3.99L33.80 3.99L33.80 3.99Q33.89 3.84 34.17 3.71L34.17 3.71L34.17 3.71Q34.45 3.58 34.72 3.58L34.72 3.58L34.72 3.58Q34.93 3.58 35.06 3.68L35.06 3.68L35.06 3.68Q35.20 3.78 35.18 3.99L35.18 3.99ZM37.21 10.51L37.21 10.51Q37.18 10.68 37.18 10.75L37.18 10.75L37.18 10.75Q37.18 11.31 37.73 11.31L37.73 11.31L37.73 11.31Q38.05 11.31 38.51 11.13L38.51 11.13L38.51 11.13Q38.93 10.96 40.07 10.42L40.07 10.42L40.07 10.42Q40.10 10.07 40.13 9.74L40.13 9.74L40.13 9.74Q40.17 9.41 40.19 9.14L40.19 9.14L40.29 8.18L40.29 8.18Q39.33 8.64 38.85 8.90L38.85 8.90L38.85 8.90Q38.15 9.31 37.73 9.67L37.73 9.67L37.73 9.67Q37.31 10.02 37.21 10.51L37.21 10.51ZM40.85 3.92L40.85 3.92Q41.48 3.92 41.70 4.23L41.70 4.23L41.70 4.23Q41.92 4.55 41.92 5.15L41.92 5.15L41.90 5.54L41.90 5.54Q41.85 6.57 41.65 8.54L41.65 8.54L41.65 8.54Q41.61 8.82 41.55 9.48L41.55 9.48L41.55 9.48Q41.50 9.88 41.45 10.14L41.45 10.14L41.45 10.14Q41.61 10.22 41.61 10.36L41.61 10.36L41.61 10.36Q41.61 10.46 41.51 10.65L41.51 10.65L41.45 10.72L41.37 10.81L41.37 10.81Q41.27 11.52 41.27 12.03L41.27 12.03L41.27 12.03Q41.47 12.14 41.47 12.29L41.47 12.29L41.47 12.29Q41.47 12.53 41.12 12.80L41.12 12.80L41.12 12.80Q41.02 12.87 40.89 12.94L40.89 12.94L40.89 12.94Q40.80 12.99 40.62 13.03L40.62 13.03L40.62 13.03Q40.45 13.08 40.28 13.08L40.28 13.08L40.28 13.08Q39.76 13.08 39.80 12.70L39.80 12.70L39.91 11.52L39.91 11.52Q38.04 12.42 37.03 12.42L37.03 12.42L37.03 12.42Q35.76 12.42 35.76 11.05L35.76 11.05L35.76 11.05Q35.76 9.73 37.12 8.81L37.12 8.81L37.12 8.81Q38.49 7.88 40.39 7.14L40.39 7.14L40.39 7.14Q40.45 6.59 40.47 6.03L40.47 6.03L40.47 6.03Q40.47 5.92 40.49 5.75L40.49 5.75L40.49 5.75Q40.50 5.59 40.50 5.38L40.50 5.38L40.50 5.38Q40.50 5.11 40.46 5.03L40.46 5.03L40.42 4.97L40.40 4.97L40.40 4.97Q40.19 4.97 39.62 5.54L39.62 5.54L39.62 5.54Q39.10 6.05 38.33 7.06L38.33 7.06L38.33 7.06Q38.22 7.21 37.96 7.31L37.96 7.31L37.96 7.31Q37.70 7.41 37.44 7.41L37.44 7.41L37.44 7.41Q37.24 7.41 37.11 7.34L37.11 7.34L37.11 7.34Q36.97 7.27 36.97 7.13L36.97 7.13L36.97 7.13Q36.97 7.01 37.09 6.83L37.09 6.83L37.09 6.83Q39.02 3.92 40.85 3.92L40.85 3.92ZM44.23 11.40L44.23 11.40Q44.49 11.61 44.91 11.61L44.91 11.61L44.91 11.61Q45.40 11.61 46.16 11.28L46.16 11.28L46.16 11.28Q46.61 8.69 46.86 6.19L46.86 6.19L46.83 6.19L46.83 6.19Q46.07 6.19 45.44 6.71L45.44 6.71L45.44 6.71Q44.81 7.22 44.40 7.99L44.40 7.99L44.40 7.99Q43.99 8.76 43.83 9.52L43.83 9.52L43.83 9.52Q43.76 9.87 43.76 10.21L43.76 10.21L43.76 10.21Q43.76 11.03 44.23 11.40L44.23 11.40ZM47.19 1.75L47.19 1.75Q47.21 1.50 47.54 1.31L47.54 1.31L47.54 1.31Q47.88 1.12 48.23 1.12L48.23 1.12L48.23 1.12Q48.66 1.12 48.65 1.44L48.65 1.44L48.65 1.44Q48.41 6.06 47.64 10.98L47.64 10.98L47.64 10.98Q47.87 11.09 47.87 11.27L47.87 11.27L47.87 11.27Q47.87 11.48 47.53 11.68L47.53 11.68L47.45 12.19L47.45 12.19Q47.39 12.46 47.05 12.65L47.05 12.65L47.05 12.65Q46.70 12.84 46.37 12.84L46.37 12.84L46.37 12.84Q46.16 12.84 46.03 12.75L46.03 12.75L46.03 12.75Q45.91 12.66 45.95 12.47L45.95 12.47L45.95 12.47Q45.95 12.40 45.96 12.38L45.96 12.38L45.96 12.38Q45.07 12.66 44.48 12.66L44.48 12.66L44.48 12.66Q43.83 12.66 43.32 12.38L43.32 12.38L43.32 12.38Q42.80 12.11 42.56 11.61L42.56 11.61L42.56 11.61Q42.32 11.10 42.32 10.47L42.32 10.47L42.32 10.47Q42.32 10.25 42.38 9.86L42.38 9.86L42.38 9.86Q42.57 8.72 43.22 7.67L43.22 7.67L43.22 7.67Q43.86 6.62 44.84 5.95L44.84 5.95L44.84 5.95Q45.82 5.28 46.96 5.24L46.96 5.24L46.96 5.24Q47.12 3.32 47.19 1.75L47.19 1.75ZM52.56 5.07L52.56 5.07Q51.84 5.61 51.39 6.83L51.39 6.83L51.39 6.83Q52.77 6.31 53.87 5.96L53.87 5.96L53.87 5.96Q53.41 5.32 52.93 5.10L52.93 5.10L52.93 5.10Q52.84 5.05 52.75 5.04L52.75 5.04L52.75 5.04Q52.65 5.03 52.64 5.03L52.64 5.03L52.64 5.03Q52.65 5.04 52.62 5.05L52.62 5.05L52.62 5.05Q52.58 5.07 52.56 5.07L52.56 5.07ZM52.61 4.07L52.61 4.07Q52.84 4.02 53.09 4.02L53.09 4.02L53.09 4.02Q54.43 4.02 55.52 5.82L55.52 5.82L55.52 5.82Q55.57 5.88 55.57 5.96L55.57 5.96L55.57 5.96Q55.57 6.12 55.37 6.29L55.37 6.29L55.37 6.29Q55.22 6.45 54.98 6.55L54.98 6.55L54.98 6.55Q53.58 7.17 51.09 8.02L51.09 8.02L51.09 8.02Q50.95 8.74 50.95 9.49L50.95 9.49L50.95 9.49Q50.95 9.84 50.96 10.00L50.96 10.00L50.96 10.00Q50.99 10.63 51.21 11.09L51.21 11.09L51.21 11.09Q51.28 11.24 51.42 11.38L51.42 11.38L51.42 11.38Q51.55 11.52 51.62 11.56L51.62 11.56L51.62 11.56Q51.66 11.59 51.76 11.59L51.76 11.59L51.76 11.59Q51.86 11.59 51.99 11.54L51.99 11.54L51.99 11.54Q52.12 11.48 52.29 11.38L52.29 11.38L52.29 11.38Q52.70 11.14 53.05 10.84L53.05 10.84L53.05 10.84Q53.40 10.53 53.89 10.04L53.89 10.04L53.89 10.04Q54.08 9.84 54.54 9.84L54.54 9.84L54.54 9.84Q54.80 9.84 54.97 9.92L54.97 9.92L54.97 9.92Q55.15 10.00 55.15 10.14L55.15 10.14L55.15 10.14Q55.15 10.26 55.01 10.42L55.01 10.42L55.01 10.42Q54.14 11.35 53.23 12.01L53.23 12.01L53.23 12.01Q52.32 12.67 51.41 12.67L51.41 12.67L51.41 12.67Q50.97 12.67 50.60 12.49L50.60 12.49L50.60 12.49Q49.97 12.19 49.69 11.55L49.69 11.55L49.69 11.55Q49.41 10.91 49.41 10.04L49.41 10.04L49.41 10.04Q49.41 9.39 49.57 8.53L49.57 8.53L49.46 8.55L49.35 8.60L49.35 8.60Q49.14 8.67 49.01 8.67L49.01 8.67L49.01 8.67Q48.82 8.67 48.71 8.57L48.71 8.57L48.71 8.57Q48.59 8.47 48.59 8.32L48.59 8.32L48.59 8.32Q48.59 8.13 48.74 7.96L48.74 7.96L48.74 7.96Q48.89 7.78 49.18 7.67L49.18 7.67L49.87 7.41L49.87 7.41Q49.99 7.01 50.25 6.38L50.25 6.38L50.25 6.38Q50.64 5.52 51.23 4.89L51.23 4.89L51.23 4.89Q51.81 4.26 52.61 4.07L52.61 4.07ZM61.98 11.13L61.98 11.13Q62.55 10.36 62.97 9.51L62.97 9.51L62.97 9.51Q63.34 8.81 63.74 7.77L63.74 7.77L63.74 7.77Q64.15 6.73 64.15 6.06L64.15 6.06L64.15 6.06Q64.15 5.84 64.09 5.71L64.09 5.71L64.09 5.71Q63.67 5.74 63.59 5.46L63.59 5.46L63.59 5.46Q63.49 5.11 63.38 5.11L63.38 5.11L63.38 5.11Q63.29 5.11 63.21 5.21L63.21 5.21L63.21 5.21Q63.13 5.32 62.97 5.59L62.97 5.59L62.97 5.59Q62.78 5.88 62.55 6.40L62.55 6.40L62.55 6.40Q62.09 7.38 61.80 8.32L61.80 8.32L61.80 8.32Q61.46 9.28 61.26 10.07L61.26 10.07L61.26 10.07Q61.07 10.85 61.07 11.56L61.07 11.56L61.07 11.56Q61.07 11.87 61.11 12.17L61.11 12.17L61.40 11.86L61.40 11.86Q61.67 11.55 61.98 11.13L61.98 11.13ZM64.93 4.52L64.93 4.52Q65.35 4.69 65.53 5.00L65.53 5.00L65.53 5.00Q65.72 5.31 65.72 5.78L65.72 5.78L65.72 5.78Q65.72 6.23 65.49 7.32L65.49 7.32L65.49 7.32Q64.88 10.21 64.49 12.59L64.49 12.59L64.49 12.59Q64.11 14.97 63.94 17.29L63.94 17.29L63.94 17.29Q63.92 17.49 63.89 17.63L63.89 17.63L63.89 17.63Q63.85 17.78 63.76 17.99L63.76 17.99L63.76 17.99Q63.60 18.30 63.27 18.54L63.27 18.54L63.27 18.54Q62.94 18.79 62.65 18.79L62.65 18.79L62.65 18.79Q62.38 18.79 62.24 18.55L62.24 18.55L61.84 17.85L61.84 17.85Q60.96 16.31 60.34 15.33L60.34 15.33L60.34 15.33Q60.30 15.27 60.30 15.19L60.30 15.19L60.30 15.19Q60.30 14.95 60.65 14.74L60.65 14.74L60.65 14.74Q61.00 14.53 61.36 14.53L61.36 14.53L61.36 14.53Q61.73 14.53 61.87 14.77L61.87 14.77L61.87 14.77Q62.06 15.13 62.31 15.55L62.31 15.55L62.59 16.04L62.59 16.04Q62.90 13.57 63.28 11.37L63.28 11.37L63.28 11.37Q62.64 12.26 61.93 12.91L61.93 12.91L61.93 12.91Q61.22 13.55 60.62 13.55L60.62 13.55L60.62 13.55Q60.16 13.55 59.82 13.13L59.82 13.13L59.82 13.13Q59.54 12.78 59.54 12.12L59.54 12.12L59.54 12.12Q59.54 11.76 59.61 11.41L59.61 11.41L59.61 11.41Q59.67 11.06 59.81 10.46L59.81 10.46L59.89 10.12L59.89 10.12Q60.31 8.22 61.14 6.41L61.14 6.41L61.14 6.41Q61.53 5.59 61.93 5.04L61.93 5.04L61.93 5.04Q62.33 4.49 62.94 4.21L62.94 4.21L62.94 4.21Q63.32 4.03 63.78 4.03L63.78 4.03L63.78 4.03Q64.47 4.03 64.83 4.49L64.83 4.49L64.93 4.52ZM71.12 7.71L71.12 7.71Q71.12 6.23 69.38 5.38L69.38 5.38L69.38 5.38Q68.95 5.74 68.52 6.34L68.52 6.34L68.52 6.34Q67.98 7.11 67.63 8.06L67.63 8.06L67.63 8.06Q67.49 8.44 67.37 9.09L67.37 9.09L67.37 9.09Q67.24 9.74 67.24 10.30L67.24 10.30L67.24 10.30Q67.24 10.88 67.40 11.22L67.40 11.22L67.40 11.22Q67.56 11.56 67.93 11.56L67.93 11.56L67.93 11.56Q68.22 11.56 68.61 11.33L68.61 11.33L68.61 11.33Q69.69 10.70 70.41 9.76L70.41 9.76L70.41 9.76Q71.12 8.82 71.12 7.71L71.12 7.71ZM71.51 5.18L71.51 5.18Q72.02 5.66 72.29 6.26L72.29 6.26L72.29 6.26Q72.56 6.86 72.56 7.53L72.56 7.53L72.56 7.53Q72.56 8.50 72.00 9.49L72.00 9.49L72.00 9.49Q71.62 10.16 70.90 10.91L70.90 10.91L70.90 10.91Q70.17 11.65 69.28 12.16L69.28 12.16L69.28 12.16Q68.39 12.67 67.58 12.67L67.58 12.67L67.58 12.67Q67.07 12.67 66.63 12.45L66.63 12.45L66.63 12.45Q65.67 11.93 65.67 10.58L65.67 10.58L65.67 10.58Q65.67 9.62 66.11 8.46L66.11 8.46L66.11 8.46Q66.54 7.31 67.03 6.51L67.03 6.51L67.03 6.51Q68.22 4.62 69.54 4.13L69.54 4.13L69.54 4.13Q69.90 3.99 70.32 3.99L70.32 3.99L70.32 3.99Q70.81 3.99 71.15 4.23L71.15 4.23L71.15 4.23Q71.48 4.48 71.54 5.00L71.54 5.00L71.54 5.05L71.54 5.05Q71.54 5.10 71.51 5.18L71.51 5.18ZM77.91 7.71L77.91 7.71Q77.91 6.23 76.17 5.38L76.17 5.38L76.17 5.38Q75.74 5.74 75.31 6.34L75.31 6.34L75.31 6.34Q74.77 7.11 74.42 8.06L74.42 8.06L74.42 8.06Q74.28 8.44 74.16 9.09L74.16 9.09L74.16 9.09Q74.03 9.74 74.03 10.30L74.03 10.30L74.03 10.30Q74.03 10.88 74.19 11.22L74.19 11.22L74.19 11.22Q74.35 11.56 74.72 11.56L74.72 11.56L74.72 11.56Q75.01 11.56 75.40 11.33L75.40 11.33L75.40 11.33Q76.48 10.70 77.20 9.76L77.20 9.76L77.20 9.76Q77.91 8.82 77.91 7.71L77.91 7.71ZM78.30 5.18L78.30 5.18Q78.81 5.66 79.08 6.26L79.08 6.26L79.08 6.26Q79.35 6.86 79.35 7.53L79.35 7.53L79.35 7.53Q79.35 8.50 78.79 9.49L78.79 9.49L78.79 9.49Q78.41 10.16 77.69 10.91L77.69 10.91L77.69 10.91Q76.96 11.65 76.07 12.16L76.07 12.16L76.07 12.16Q75.18 12.67 74.37 12.67L74.37 12.67L74.37 12.67Q73.86 12.67 73.42 12.45L73.42 12.45L73.42 12.45Q72.46 11.93 72.46 10.58L72.46 10.58L72.46 10.58Q72.46 9.62 72.90 8.46L72.90 8.46L72.90 8.46Q73.33 7.31 73.82 6.51L73.82 6.51L73.82 6.51Q75.01 4.62 76.33 4.13L76.33 4.13L76.33 4.13Q76.69 3.99 77.11 3.99L77.11 3.99L77.11 3.99Q77.60 3.99 77.94 4.23L77.94 4.23L77.94 4.23Q78.27 4.48 78.33 5.00L78.33 5.00L78.33 5.05L78.33 5.05Q78.33 5.10 78.30 5.18L78.30 5.18ZM81.12 11.40L81.12 11.40Q81.38 11.61 81.80 11.61L81.80 11.61L81.80 11.61Q82.29 11.61 83.05 11.28L83.05 11.28L83.05 11.28Q83.50 8.69 83.75 6.19L83.75 6.19L83.72 6.19L83.72 6.19Q82.96 6.19 82.33 6.71L82.33 6.71L82.33 6.71Q81.70 7.22 81.29 7.99L81.29 7.99L81.29 7.99Q80.88 8.76 80.72 9.52L80.72 9.52L80.72 9.52Q80.65 9.87 80.65 10.21L80.65 10.21L80.65 10.21Q80.65 11.03 81.12 11.40L81.12 11.40ZM84.08 1.75L84.08 1.75Q84.10 1.50 84.43 1.31L84.43 1.31L84.43 1.31Q84.77 1.12 85.12 1.12L85.12 1.12L85.12 1.12Q85.55 1.12 85.54 1.44L85.54 1.44L85.54 1.44Q85.30 6.06 84.53 10.98L84.53 10.98L84.53 10.98Q84.76 11.09 84.76 11.27L84.76 11.27L84.76 11.27Q84.76 11.48 84.42 11.68L84.42 11.68L84.34 12.19L84.34 12.19Q84.28 12.46 83.94 12.65L83.94 12.65L83.94 12.65Q83.59 12.84 83.26 12.84L83.26 12.84L83.26 12.84Q83.05 12.84 82.92 12.75L82.92 12.75L82.92 12.75Q82.80 12.66 82.84 12.47L82.84 12.47L82.84 12.47Q82.84 12.40 82.85 12.38L82.85 12.38L82.85 12.38Q81.96 12.66 81.37 12.66L81.37 12.66L81.37 12.66Q80.72 12.66 80.21 12.38L80.21 12.38L80.21 12.38Q79.69 12.11 79.45 11.61L79.45 11.61L79.45 11.61Q79.21 11.10 79.21 10.47L79.21 10.47L79.21 10.47Q79.21 10.25 79.27 9.86L79.27 9.86L79.27 9.86Q79.46 8.72 80.11 7.67L80.11 7.67L80.11 7.67Q80.75 6.62 81.73 5.95L81.73 5.95L81.73 5.95Q82.71 5.28 83.85 5.24L83.85 5.24L83.85 5.24Q84.01 3.32 84.08 1.75L84.08 1.75ZM87.88 5.98L87.88 5.98Q87.88 6.51 88.15 6.92L88.15 6.92L88.15 6.92Q88.42 7.32 88.82 7.60L88.82 7.60L88.82 7.60Q89.21 7.88 89.88 8.26L89.88 8.26L89.88 8.26Q90.79 8.78 91.27 9.20L91.27 9.20L91.27 9.20Q91.76 9.62 91.91 10.25L91.91 10.25L91.91 10.25Q91.97 10.53 91.97 10.65L91.97 10.65L91.97 10.65Q91.97 11.63 90.93 12.06L90.93 12.06L90.93 12.06Q89.89 12.49 88.58 12.49L88.58 12.49L88.58 12.49Q88.06 12.49 87.67 12.42L87.67 12.42L87.67 12.42Q87.21 12.33 86.71 12.09L86.71 12.09L86.71 12.09Q86.21 11.84 85.88 11.49L85.88 11.49L85.88 11.49Q85.55 11.13 85.55 10.75L85.55 10.75L85.55 10.75Q85.55 10.16 86.46 9.67L86.46 9.67L86.46 9.67Q86.72 9.55 86.95 9.55L86.95 9.55L86.95 9.55Q87.18 9.55 87.33 9.65L87.33 9.65L87.33 9.65Q87.47 9.74 87.47 9.88L87.47 9.88L87.47 9.88Q87.47 10.14 87.07 10.37L87.07 10.37L87.07 10.37Q86.98 10.42 86.98 10.50L86.98 10.50L86.98 10.50Q86.98 10.67 87.25 10.91L87.25 10.91L87.25 10.91Q87.51 11.14 87.67 11.23L87.67 11.23L87.67 11.23Q88.09 11.47 89.01 11.52L89.01 11.52L89.01 11.52Q89.12 11.54 89.40 11.54L89.40 11.54L89.40 11.54Q89.91 11.54 90.22 11.37L90.22 11.37L90.22 11.37Q90.52 11.20 90.48 10.75L90.48 10.75L90.48 10.75Q90.43 10.15 89.26 9.39L89.26 9.39L88.73 9.06L88.73 9.06Q88.00 8.61 87.54 8.27L87.54 8.27L87.54 8.27Q87.07 7.92 86.73 7.44L86.73 7.44L86.73 7.44Q86.39 6.96 86.39 6.36L86.39 6.36L86.39 6.36Q86.39 5.98 86.53 5.60L86.53 5.60L86.53 5.60Q86.84 4.69 87.68 4.19L87.68 4.19L87.68 4.19Q88.52 3.70 89.49 3.70L89.49 3.70L89.49 3.70Q90.48 3.70 91.16 4.20L91.16 4.20L91.16 4.20Q91.84 4.70 91.84 5.63L91.84 5.63L91.84 5.63Q91.84 5.92 91.76 6.26L91.76 6.26L91.76 6.26Q91.70 6.51 91.34 6.69L91.34 6.69L91.34 6.69Q90.97 6.87 90.65 6.87L90.65 6.87L90.65 6.87Q90.45 6.87 90.35 6.79L90.35 6.79L90.35 6.79Q90.24 6.71 90.30 6.55L90.30 6.55L90.30 6.55Q90.38 6.26 90.38 5.96L90.38 5.96L90.38 5.96Q90.38 5.50 90.15 5.18L90.15 5.18L90.15 5.18Q89.91 4.86 89.45 4.73L89.45 4.73L89.45 4.73Q89.19 4.68 89.07 4.68L89.07 4.68L89.07 4.68Q88.56 4.68 88.22 5.03L88.22 5.03L88.22 5.03Q87.88 5.39 87.88 5.98L87.88 5.98ZM104.78 3.99L104.78 3.99Q104.71 5.46 104.71 6.62L104.71 6.62L104.71 6.62Q104.71 9.51 105.10 11.76L105.10 11.76L105.10 11.76Q105.15 12.08 104.85 12.31L104.85 12.31L104.85 12.31Q104.54 12.54 104.17 12.54L104.17 12.54L104.17 12.54Q103.96 12.54 103.82 12.45L103.82 12.45L103.82 12.45Q103.68 12.35 103.66 12.15L103.66 12.15L103.66 12.15Q103.29 9.44 103.24 7.08L103.24 7.08L103.24 7.08Q102.56 8.68 101.63 11.56L101.63 11.56L101.63 11.56Q101.61 11.62 101.54 11.72L101.54 11.72L101.54 11.72Q101.42 11.89 101.16 11.98L101.16 11.98L101.16 11.98Q100.91 12.08 100.66 12.08L100.66 12.08L100.66 12.08Q100.46 12.08 100.35 12.03L100.35 12.03L100.35 12.03Q100.17 11.93 100.17 11.76L100.17 11.76L100.17 11.76Q100.17 11.72 100.20 11.61L100.20 11.61L100.20 11.61Q100.21 11.45 100.21 11.16L100.21 11.16L100.21 11.16Q100.21 10.67 100.13 9.74L100.13 9.74L100.07 8.99L100.07 8.99Q100.02 7.62 99.97 6.93L99.97 6.93L99.97 6.93Q99.30 8.16 98.91 8.75L98.91 8.75L98.91 8.75Q98.57 10.53 97.79 12.19L97.79 12.19L97.79 12.19Q97.69 12.39 97.37 12.53L97.37 12.53L97.37 12.53Q97.05 12.67 96.74 12.67L96.74 12.67L96.74 12.67Q96.54 12.67 96.43 12.60L96.43 12.60L96.43 12.60Q96.31 12.53 96.31 12.40L96.31 12.40L96.31 12.40Q96.31 12.32 96.35 12.22L96.35 12.22L96.35 12.22Q96.99 10.82 97.33 9.35L97.33 9.35L97.33 9.35Q97.27 9.30 97.27 9.20L97.27 9.20L97.27 9.20Q97.27 9.06 97.38 8.90L97.38 8.90L97.44 8.81L97.44 8.81Q97.66 7.69 97.66 6.43L97.66 6.43L97.66 6.43Q97.66 5.89 97.62 5.38L97.62 5.38L97.62 5.38Q97.61 5.14 97.94 4.94L97.94 4.94L97.94 4.94Q98.28 4.75 98.63 4.75L98.63 4.75L98.63 4.75Q98.83 4.75 98.95 4.83L98.95 4.83L98.95 4.83Q99.08 4.91 99.09 5.07L99.09 5.07L99.09 5.07Q99.12 5.32 99.15 5.88L99.15 5.88L99.15 5.88Q99.47 5.29 99.83 4.77L99.83 4.77L99.83 4.77Q99.86 4.54 100.17 4.36L100.17 4.36L100.17 4.36Q100.48 4.19 100.81 4.19L100.81 4.19L100.81 4.19Q101.02 4.19 101.17 4.28L101.17 4.28L101.17 4.28Q101.32 4.37 101.33 4.56L101.33 4.56L101.33 4.56Q101.47 6.37 101.53 7.78L101.53 7.78L101.53 7.78Q102.47 5.49 103.39 3.99L103.39 3.99L103.39 3.99Q103.49 3.84 103.77 3.71L103.77 3.71L103.77 3.71Q104.05 3.58 104.31 3.58L104.31 3.58L104.31 3.58Q104.52 3.58 104.66 3.68L104.66 3.68L104.66 3.68Q104.79 3.78 104.78 3.99L104.78 3.99ZM106.81 10.51L106.81 10.51Q106.78 10.68 106.78 10.75L106.78 10.75L106.78 10.75Q106.78 11.31 107.32 11.31L107.32 11.31L107.32 11.31Q107.65 11.31 108.11 11.13L108.11 11.13L108.11 11.13Q108.53 10.96 109.66 10.42L109.66 10.42L109.66 10.42Q109.69 10.07 109.73 9.74L109.73 9.74L109.73 9.74Q109.76 9.41 109.79 9.14L109.79 9.14L109.89 8.18L109.89 8.18Q108.92 8.64 108.44 8.90L108.44 8.90L108.44 8.90Q107.74 9.31 107.32 9.67L107.32 9.67L107.32 9.67Q106.90 10.02 106.81 10.51L106.81 10.51ZM110.45 3.92L110.45 3.92Q111.08 3.92 111.29 4.23L111.29 4.23L111.29 4.23Q111.51 4.55 111.51 5.15L111.51 5.15L111.50 5.54L111.50 5.54Q111.44 6.57 111.24 8.54L111.24 8.54L111.24 8.54Q111.20 8.82 111.15 9.48L111.15 9.48L111.15 9.48Q111.09 9.88 111.05 10.14L111.05 10.14L111.05 10.14Q111.20 10.22 111.20 10.36L111.20 10.36L111.20 10.36Q111.20 10.46 111.10 10.65L111.10 10.65L111.05 10.72L110.96 10.81L110.96 10.81Q110.87 11.52 110.87 12.03L110.87 12.03L110.87 12.03Q111.06 12.14 111.06 12.29L111.06 12.29L111.06 12.29Q111.06 12.53 110.71 12.80L110.71 12.80L110.71 12.80Q110.61 12.87 110.49 12.94L110.49 12.94L110.49 12.94Q110.39 12.99 110.22 13.03L110.22 13.03L110.22 13.03Q110.04 13.08 109.87 13.08L109.87 13.08L109.87 13.08Q109.35 13.08 109.40 12.70L109.40 12.70L109.51 11.52L109.51 11.52Q107.63 12.42 106.62 12.42L106.62 12.42L106.62 12.42Q105.35 12.42 105.35 11.05L105.35 11.05L105.35 11.05Q105.35 9.73 106.72 8.81L106.72 8.81L106.72 8.81Q108.08 7.88 109.98 7.14L109.98 7.14L109.98 7.14Q110.04 6.59 110.07 6.03L110.07 6.03L110.07 6.03Q110.07 5.92 110.08 5.75L110.08 5.75L110.08 5.75Q110.10 5.59 110.10 5.38L110.10 5.38L110.10 5.38Q110.10 5.11 110.05 5.03L110.05 5.03L110.01 4.97L110.00 4.97L110.00 4.97Q109.79 4.97 109.21 5.54L109.21 5.54L109.21 5.54Q108.70 6.05 107.93 7.06L107.93 7.06L107.93 7.06Q107.81 7.21 107.56 7.31L107.56 7.31L107.56 7.31Q107.30 7.41 107.03 7.41L107.03 7.41L107.03 7.41Q106.83 7.41 106.70 7.34L106.70 7.34L106.70 7.34Q106.57 7.27 106.57 7.13L106.57 7.13L106.57 7.13Q106.57 7.01 106.68 6.83L106.68 6.83L106.68 6.83Q108.61 3.92 110.45 3.92L110.45 3.92ZM116.05 3.88L116.05 3.88Q116.45 3.71 116.79 3.71L116.79 3.71L116.79 3.71Q117.15 3.71 117.38 3.90L117.38 3.90L117.38 3.90Q117.60 4.09 117.60 4.51L117.60 4.51L117.60 4.51Q117.60 4.91 117.47 5.39L117.47 5.39L117.47 5.39Q117.35 5.87 117.12 6.51L117.12 6.51L116.93 7.10L116.93 7.10Q116.84 7.36 116.49 7.55L116.49 7.55L116.49 7.55Q116.14 7.73 115.82 7.73L115.82 7.73L115.82 7.73Q115.61 7.73 115.51 7.64L115.51 7.64L115.51 7.64Q115.40 7.55 115.46 7.36L115.46 7.36L115.46 7.36Q115.71 6.58 115.96 5.63L115.96 5.63L115.96 5.63Q116.02 5.19 116.05 5.05L116.05 5.05L115.99 5.11L115.99 5.11Q114.91 6.03 114.02 7.43L114.02 7.43L114.02 7.43Q113.61 9.66 113.51 11.90L113.51 11.90L113.51 11.90Q113.50 12.17 113.16 12.37L113.16 12.37L113.16 12.37Q112.81 12.57 112.45 12.57L112.45 12.57L112.45 12.57Q112.24 12.57 112.10 12.47L112.10 12.47L112.10 12.47Q111.96 12.38 111.97 12.18L111.97 12.18L111.97 12.18Q112.08 10.16 112.41 8.26L112.41 8.26L112.41 8.26Q112.27 8.16 112.27 8.04L112.27 8.04L112.27 8.04Q112.27 7.95 112.32 7.85L112.32 7.85L112.53 7.50L112.53 7.50Q112.84 5.89 113.29 4.27L113.29 4.27L113.29 4.27Q113.36 4.02 113.73 3.83L113.73 3.83L113.73 3.83Q114.10 3.64 114.44 3.64L114.44 3.64L114.44 3.64Q114.65 3.64 114.76 3.72L114.76 3.72L114.76 3.72Q114.87 3.81 114.81 3.98L114.81 3.98L114.81 3.98Q114.59 4.76 114.53 5.01L114.53 5.01L114.53 5.01Q115.37 4.17 116.05 3.88L116.05 3.88ZM123.16 6.44L123.16 6.44Q123.65 6.76 123.65 7.50L123.65 7.50L123.65 7.50Q123.65 7.97 123.47 8.60L123.47 8.60L123.34 9.07L123.34 9.07Q123.13 9.83 122.93 10.63L122.93 10.63L122.93 10.63Q122.72 11.42 122.60 12.11L122.60 12.11L122.60 12.11Q122.56 12.36 122.23 12.54L122.23 12.54L122.23 12.54Q121.90 12.73 121.56 12.73L121.56 12.73L121.56 12.73Q121.35 12.73 121.24 12.64L121.24 12.64L121.24 12.64Q121.13 12.56 121.16 12.39L121.16 12.39L121.16 12.39Q121.32 11.51 121.80 9.77L121.80 9.77L122.11 8.61L122.11 8.61Q122.25 8.05 122.25 7.80L122.25 7.80L122.25 7.80Q122.25 7.60 122.18 7.49L122.18 7.49L122.18 7.49Q122.01 7.24 121.63 7.24L121.63 7.24L121.63 7.24Q121.31 7.24 120.81 7.42L120.81 7.42L120.81 7.42Q120.19 7.60 119.24 8.13L119.24 8.13L118.99 11.69L118.99 11.69Q118.97 11.96 118.63 12.15L118.63 12.15L118.63 12.15Q118.29 12.35 117.94 12.35L117.94 12.35L117.94 12.35Q117.71 12.35 117.59 12.26L117.59 12.26L117.59 12.26Q117.47 12.17 117.49 11.98L117.49 11.98L117.49 11.98Q117.66 10.00 117.73 9.00L117.73 9.00L117.73 9.00Q117.52 8.99 117.38 8.92L117.38 8.92L117.38 8.92Q117.24 8.85 117.24 8.72L117.24 8.72L117.24 8.72Q117.24 8.54 117.46 8.33L117.46 8.33L117.46 8.33Q117.59 8.23 117.81 8.01L117.81 8.01L117.81 8.01Q118.10 4.37 118.30 1.39L118.30 1.39L118.30 1.39Q118.31 1.13 118.66 0.95L118.66 0.95L118.66 0.95Q119.00 0.76 119.34 0.76L119.34 0.76L119.34 0.76Q119.55 0.76 119.67 0.84L119.67 0.84L119.67 0.84Q119.78 0.92 119.77 1.09L119.77 1.09L119.77 1.09Q119.55 3.84 119.35 6.59L119.35 6.59L119.35 6.59Q120.96 5.11 122.47 3.92L122.47 3.92L122.47 3.92Q122.60 3.82 122.79 3.77L122.79 3.77L122.79 3.77Q122.98 3.72 123.16 3.72L123.16 3.72L123.16 3.72Q123.37 3.72 123.50 3.79L123.50 3.79L123.50 3.79Q123.63 3.85 123.63 3.98L123.63 3.98L123.63 3.98Q123.63 4.14 123.41 4.33L123.41 4.33L122.02 5.57L121.13 6.38L121.13 6.38Q121.83 6.19 122.28 6.19L122.28 6.19L122.28 6.19Q122.81 6.19 123.16 6.44L123.16 6.44ZM128.32 5.07L128.32 5.07Q127.61 5.61 127.16 6.83L127.16 6.83L127.16 6.83Q128.53 6.31 129.64 5.96L129.64 5.96L129.64 5.96Q129.18 5.32 128.70 5.10L128.70 5.10L128.70 5.10Q128.60 5.05 128.51 5.04L128.51 5.04L128.51 5.04Q128.42 5.03 128.41 5.03L128.41 5.03L128.41 5.03Q128.42 5.04 128.39 5.05L128.39 5.05L128.39 5.05Q128.35 5.07 128.32 5.07L128.32 5.07ZM128.38 4.07L128.38 4.07Q128.60 4.02 128.86 4.02L128.86 4.02L128.86 4.02Q130.20 4.02 131.29 5.82L131.29 5.82L131.29 5.82Q131.33 5.88 131.33 5.96L131.33 5.96L131.33 5.96Q131.33 6.12 131.14 6.29L131.14 6.29L131.14 6.29Q130.98 6.45 130.75 6.55L130.75 6.55L130.75 6.55Q129.35 7.17 126.85 8.02L126.85 8.02L126.85 8.02Q126.71 8.74 126.71 9.49L126.71 9.49L126.71 9.49Q126.71 9.84 126.73 10.00L126.73 10.00L126.73 10.00Q126.76 10.63 126.98 11.09L126.98 11.09L126.98 11.09Q127.05 11.24 127.18 11.38L127.18 11.38L127.18 11.38Q127.32 11.52 127.39 11.56L127.39 11.56L127.39 11.56Q127.43 11.59 127.53 11.59L127.53 11.59L127.53 11.59Q127.62 11.59 127.76 11.54L127.76 11.54L127.76 11.54Q127.89 11.48 128.06 11.38L128.06 11.38L128.06 11.38Q128.46 11.14 128.81 10.84L128.81 10.84L128.81 10.84Q129.16 10.53 129.65 10.04L129.65 10.04L129.65 10.04Q129.85 9.84 130.31 9.84L130.31 9.84L130.31 9.84Q130.56 9.84 130.74 9.92L130.74 9.92L130.74 9.92Q130.91 10.00 130.91 10.14L130.91 10.14L130.91 10.14Q130.91 10.26 130.77 10.42L130.77 10.42L130.77 10.42Q129.91 11.35 129.00 12.01L129.00 12.01L129.00 12.01Q128.09 12.67 127.18 12.67L127.18 12.67L127.18 12.67Q126.74 12.67 126.36 12.49L126.36 12.49L126.36 12.49Q125.73 12.19 125.45 11.55L125.45 11.55L125.45 11.55Q125.17 10.91 125.17 10.04L125.17 10.04L125.17 10.04Q125.17 9.39 125.34 8.53L125.34 8.53L125.23 8.55L125.12 8.60L125.12 8.60Q124.91 8.67 124.78 8.67L124.78 8.67L124.78 8.67Q124.59 8.67 124.47 8.57L124.47 8.57L124.47 8.57Q124.36 8.47 124.36 8.32L124.36 8.32L124.36 8.32Q124.36 8.13 124.51 7.96L124.51 7.96L124.51 7.96Q124.66 7.78 124.95 7.67L124.95 7.67L125.64 7.41L125.64 7.41Q125.76 7.01 126.01 6.38L126.01 6.38L126.01 6.38Q126.41 5.52 126.99 4.89L126.99 4.89L126.99 4.89Q127.58 4.26 128.38 4.07L128.38 4.07ZM136.79 9.49L136.79 9.49Q136.89 9.39 137.10 9.34L137.10 9.34L137.10 9.34Q137.31 9.28 137.52 9.28L137.52 9.28L137.52 9.28Q138.04 9.28 138.04 9.55L138.04 9.55L138.04 9.55Q138.04 9.67 137.90 9.83L137.90 9.83L137.90 9.83Q137.73 10.02 137.59 10.20L137.59 10.20L137.59 10.20Q137.45 10.37 137.34 10.51L137.34 10.51L137.34 10.51Q136.72 11.31 136.23 11.78L136.23 11.78L136.23 11.78Q135.74 12.25 135.09 12.46L135.09 12.46L135.09 12.46Q134.78 12.56 134.43 12.56L134.43 12.56L134.43 12.56Q133.84 12.56 133.43 12.22L133.43 12.22L133.43 12.22Q133.01 11.89 132.94 11.24L132.94 11.24L132.94 11.24Q132.92 11.06 132.92 10.68L132.92 10.68L132.92 10.68Q132.92 9.95 133.08 9.20L133.08 9.20L133.08 9.20Q133.25 8.44 133.57 7.31L133.57 7.31L133.74 6.71L133.21 6.76L133.21 6.76Q132.82 6.79 132.15 6.87L132.15 6.87L132.15 6.87Q131.82 6.92 131.66 6.80L131.66 6.80L131.66 6.80Q131.49 6.69 131.49 6.51L131.49 6.51L131.49 6.51Q131.49 6.30 131.69 6.10L131.69 6.10L131.69 6.10Q131.89 5.89 132.22 5.87L132.22 5.87L134.02 5.66L134.02 5.66Q134.64 3.39 135.41 1.20L135.41 1.20L135.41 1.20Q135.48 1.01 135.79 0.86L135.79 0.86L135.79 0.86Q136.11 0.71 136.40 0.71L136.40 0.71L136.40 0.71Q136.58 0.71 136.70 0.78L136.70 0.78L136.70 0.78Q136.82 0.85 136.82 0.99L136.82 0.99L136.82 0.99Q136.82 1.04 136.79 1.15L136.79 1.15L136.79 1.15Q135.98 3.43 135.44 5.50L135.44 5.50L135.44 5.50Q136.42 5.40 136.74 5.40L136.74 5.40L136.74 5.40Q137.14 5.40 137.14 5.64L137.14 5.64L137.14 5.64Q137.14 5.84 136.91 6.07L136.91 6.07L136.91 6.07Q136.67 6.30 136.42 6.36L136.42 6.36L136.42 6.36Q135.58 6.50 135.16 6.55L135.16 6.55L135.16 6.55Q134.92 7.50 134.74 8.41L134.74 8.41L134.74 8.41Q134.71 8.53 134.54 9.23L134.54 9.23L134.54 9.23Q134.37 9.94 134.37 10.56L134.37 10.56L134.37 10.56Q134.37 11.35 134.79 11.42L134.79 11.42L134.79 11.42Q135.06 11.47 135.40 11.12L135.40 11.12L135.40 11.12Q135.74 10.78 136.29 10.09L136.29 10.09L136.29 10.09Q136.63 9.66 136.79 9.49L136.79 9.49ZM142.70 9.03L142.70 9.03Q142.76 8.79 142.76 8.47L142.76 8.47L142.76 8.47Q142.76 7.35 141.92 6.29L141.92 6.29L141.92 6.29Q141.44 5.67 140.91 5.29L140.91 5.29L140.91 5.29Q140.49 7.91 140.25 9.52L140.25 9.52L140.25 9.52Q140.14 10.18 139.94 11.49L139.94 11.49L139.94 11.49Q140.36 11.69 140.71 11.69L140.71 11.69L140.71 11.69Q141.30 11.69 141.78 11.12L141.78 11.12L141.78 11.12Q142.13 10.70 142.37 10.15L142.37 10.15L142.37 10.15Q142.60 9.60 142.70 9.03L142.70 9.03ZM141.06 3.93L141.06 3.93Q141.93 4.23 142.63 4.92L142.63 4.92L142.63 4.92Q143.33 5.61 143.73 6.53L143.73 6.53L143.73 6.53Q144.13 7.45 144.13 8.36L144.13 8.36L144.13 8.36Q144.13 8.85 144.00 9.31L144.00 9.31L144.00 9.31Q143.74 10.28 143.20 11.04L143.20 11.04L143.20 11.04Q142.66 11.80 141.91 12.24L141.91 12.24L141.91 12.24Q141.16 12.68 140.31 12.68L140.31 12.68L140.31 12.68Q140.04 12.68 139.76 12.64L139.76 12.64L139.76 12.64Q139.20 16.23 138.75 18.49L138.75 18.49L138.75 18.49Q138.70 18.76 138.36 18.94L138.36 18.94L138.36 18.94Q138.03 19.12 137.68 19.12L137.68 19.12L137.68 19.12Q137.44 19.12 137.31 19.03L137.31 19.03L137.31 19.03Q137.17 18.93 137.21 18.73L137.21 18.73L137.21 18.73Q137.90 15.26 138.42 12.11L138.42 12.11L138.39 12.10L138.39 12.10Q138.21 11.97 138.21 11.82L138.21 11.82L138.21 11.82Q138.21 11.58 138.54 11.37L138.54 11.37L138.54 11.37Q138.99 8.78 139.55 4.72L139.55 4.72L139.37 4.73L139.22 4.75L139.22 4.75Q138.98 4.75 138.87 4.66L138.87 4.66L138.87 4.66Q138.75 4.58 138.75 4.45L138.75 4.45L138.75 4.45Q138.75 4.24 138.96 4.05L138.96 4.05L138.96 4.05Q139.17 3.85 139.48 3.79L139.48 3.79L139.48 3.79Q139.73 3.75 139.99 3.75L139.99 3.75L139.99 3.75Q140.17 3.75 140.48 3.78L140.48 3.78L140.48 3.78Q140.92 3.72 141.06 3.93L141.06 3.93ZM145.53 1.39L145.53 1.39Q145.56 1.12 145.90 0.93L145.90 0.93L145.90 0.93Q146.24 0.74 146.58 0.74L146.58 0.74L146.58 0.74Q146.79 0.74 146.90 0.83L146.90 0.83L146.90 0.83Q147.01 0.91 147.00 1.09L147.00 1.09L147.00 1.09Q146.59 4.75 146.16 8.40L146.16 8.40L145.74 12.05L145.74 12.05Q145.71 12.32 145.36 12.52L145.36 12.52L145.36 12.52Q145.01 12.71 144.66 12.71L144.66 12.71L144.66 12.71Q144.19 12.71 144.23 12.35L144.23 12.35L144.89 6.86L144.89 6.86Q145.33 3.00 145.53 1.39L145.53 1.39ZM148.41 10.51L148.41 10.51Q148.39 10.68 148.39 10.75L148.39 10.75L148.39 10.75Q148.39 11.31 148.93 11.31L148.93 11.31L148.93 11.31Q149.25 11.31 149.72 11.13L149.72 11.13L149.72 11.13Q150.14 10.96 151.27 10.42L151.27 10.42L151.27 10.42Q151.30 10.07 151.33 9.74L151.33 9.74L151.33 9.74Q151.37 9.41 151.40 9.14L151.40 9.14L151.49 8.18L151.49 8.18Q150.53 8.64 150.05 8.90L150.05 8.90L150.05 8.90Q149.35 9.31 148.93 9.67L148.93 9.67L148.93 9.67Q148.51 10.02 148.41 10.51L148.41 10.51ZM152.05 3.92L152.05 3.92Q152.68 3.92 152.90 4.23L152.90 4.23L152.90 4.23Q153.12 4.55 153.12 5.15L153.12 5.15L153.10 5.54L153.10 5.54Q153.05 6.57 152.85 8.54L152.85 8.54L152.85 8.54Q152.81 8.82 152.75 9.48L152.75 9.48L152.75 9.48Q152.70 9.88 152.66 10.14L152.66 10.14L152.66 10.14Q152.81 10.22 152.81 10.36L152.81 10.36L152.81 10.36Q152.81 10.46 152.71 10.65L152.71 10.65L152.66 10.72L152.57 10.81L152.57 10.81Q152.47 11.52 152.47 12.03L152.47 12.03L152.47 12.03Q152.67 12.14 152.67 12.29L152.67 12.29L152.67 12.29Q152.67 12.53 152.32 12.80L152.32 12.80L152.32 12.80Q152.22 12.87 152.10 12.94L152.10 12.94L152.10 12.94Q152.00 12.99 151.82 13.03L151.82 13.03L151.82 13.03Q151.65 13.08 151.48 13.08L151.48 13.08L151.48 13.08Q150.96 13.08 151.00 12.70L151.00 12.70L151.12 11.52L151.12 11.52Q149.24 12.42 148.23 12.42L148.23 12.42L148.23 12.42Q146.96 12.42 146.96 11.05L146.96 11.05L146.96 11.05Q146.96 9.73 148.32 8.81L148.32 8.81L148.32 8.81Q149.69 7.88 151.59 7.14L151.59 7.14L151.59 7.14Q151.65 6.59 151.68 6.03L151.68 6.03L151.68 6.03Q151.68 5.92 151.69 5.75L151.69 5.75L151.69 5.75Q151.70 5.59 151.70 5.38L151.70 5.38L151.70 5.38Q151.70 5.11 151.66 5.03L151.66 5.03L151.62 4.97L151.61 4.97L151.61 4.97Q151.40 4.97 150.82 5.54L150.82 5.54L150.82 5.54Q150.30 6.05 149.53 7.06L149.53 7.06L149.53 7.06Q149.42 7.21 149.16 7.31L149.16 7.31L149.16 7.31Q148.90 7.41 148.64 7.41L148.64 7.41L148.64 7.41Q148.44 7.41 148.31 7.34L148.31 7.34L148.31 7.34Q148.18 7.27 148.18 7.13L148.18 7.13L148.18 7.13Q148.18 7.01 148.29 6.83L148.29 6.83L148.29 6.83Q150.22 3.92 152.05 3.92L152.05 3.92ZM158.94 3.47L158.94 3.47Q159.01 3.28 159.31 3.13L159.31 3.13L159.31 3.13Q159.60 2.98 159.89 2.98L159.89 2.98L159.89 2.98Q160.31 2.98 160.31 3.28L160.31 3.28L160.31 3.28Q160.31 3.32 160.29 3.43L160.29 3.43L160.29 3.43Q159.68 5.47 159.22 6.55L159.22 6.55L159.22 6.55Q159.14 6.76 158.84 6.91L158.84 6.91L158.84 6.91Q158.54 7.06 158.24 7.06L158.24 7.06L158.24 7.06Q157.89 7.06 157.84 6.82L157.84 6.82L157.84 6.82Q157.58 5.70 157.05 5.70L157.05 5.70L157.05 5.70Q156.80 5.70 156.49 5.96L156.49 5.96L156.49 5.96Q155.82 6.58 155.44 7.63L155.44 7.63L155.44 7.63Q155.05 8.68 155.05 9.63L155.05 9.63L155.05 9.63Q155.05 10.33 155.29 10.88L155.29 10.88L155.29 10.88Q155.53 11.44 156.09 11.58L156.09 11.58L156.09 11.58Q156.17 11.61 156.35 11.61L156.35 11.61L156.35 11.61Q156.81 11.61 157.27 11.26L157.27 11.26L157.27 11.26Q157.72 10.92 158.02 10.55L158.02 10.55L158.02 10.55Q158.31 10.18 158.77 9.53L158.77 9.53L158.77 9.53Q158.89 9.38 159.12 9.29L159.12 9.29L159.12 9.29Q159.36 9.20 159.60 9.20L159.60 9.20L159.60 9.20Q159.82 9.20 159.96 9.28L159.96 9.28L159.96 9.28Q160.09 9.35 160.09 9.51L160.09 9.51L160.09 9.51Q160.09 9.65 159.99 9.80L159.99 9.80L159.99 9.80Q159.25 10.96 158.19 11.81L158.19 11.81L158.19 11.81Q157.12 12.66 155.95 12.66L155.95 12.66L155.95 12.66Q155.71 12.66 155.47 12.61L155.47 12.61L155.47 12.61Q154.53 12.46 154.07 11.70L154.07 11.70L154.07 11.70Q153.61 10.93 153.61 9.93L153.61 9.93L153.61 9.93Q153.61 9.56 153.68 9.14L153.68 9.14L153.68 9.14Q153.90 7.80 154.57 6.63L154.57 6.63L154.57 6.63Q155.25 5.46 156.34 4.91L156.34 4.91L156.34 4.91Q156.88 4.65 157.43 4.65L157.43 4.65L157.43 4.65Q157.95 4.65 158.38 4.93L158.38 4.93L158.94 3.47ZM164.14 5.07L164.14 5.07Q163.42 5.61 162.97 6.83L162.97 6.83L162.97 6.83Q164.35 6.31 165.45 5.96L165.45 5.96L165.45 5.96Q164.99 5.32 164.51 5.10L164.51 5.10L164.51 5.10Q164.42 5.05 164.33 5.04L164.33 5.04L164.33 5.04Q164.23 5.03 164.22 5.03L164.22 5.03L164.22 5.03Q164.23 5.04 164.20 5.05L164.20 5.05L164.20 5.05Q164.16 5.07 164.14 5.07L164.14 5.07ZM164.19 4.07L164.19 4.07Q164.42 4.02 164.67 4.02L164.67 4.02L164.67 4.02Q166.01 4.02 167.10 5.82L167.10 5.82L167.10 5.82Q167.15 5.88 167.15 5.96L167.15 5.96L167.15 5.96Q167.15 6.12 166.95 6.29L166.95 6.29L166.95 6.29Q166.80 6.45 166.56 6.55L166.56 6.55L166.56 6.55Q165.16 7.17 162.67 8.02L162.67 8.02L162.67 8.02Q162.53 8.74 162.53 9.49L162.53 9.49L162.53 9.49Q162.53 9.84 162.54 10.00L162.54 10.00L162.54 10.00Q162.57 10.63 162.79 11.09L162.79 11.09L162.79 11.09Q162.86 11.24 163.00 11.38L163.00 11.38L163.00 11.38Q163.13 11.52 163.20 11.56L163.20 11.56L163.20 11.56Q163.24 11.59 163.34 11.59L163.34 11.59L163.34 11.59Q163.44 11.59 163.57 11.54L163.57 11.54L163.57 11.54Q163.70 11.48 163.87 11.38L163.87 11.38L163.87 11.38Q164.28 11.14 164.63 10.84L164.63 10.84L164.63 10.84Q164.98 10.53 165.47 10.04L165.47 10.04L165.47 10.04Q165.66 9.84 166.12 9.84L166.12 9.84L166.12 9.84Q166.38 9.84 166.55 9.92L166.55 9.92L166.55 9.92Q166.73 10.00 166.73 10.14L166.73 10.14L166.73 10.14Q166.73 10.26 166.59 10.42L166.59 10.42L166.59 10.42Q165.72 11.35 164.81 12.01L164.81 12.01L164.81 12.01Q163.90 12.67 162.99 12.67L162.99 12.67L162.99 12.67Q162.55 12.67 162.18 12.49L162.18 12.49L162.18 12.49Q161.55 12.19 161.27 11.55L161.27 11.55L161.27 11.55Q160.99 10.91 160.99 10.04L160.99 10.04L160.99 10.04Q160.99 9.39 161.15 8.53L161.15 8.53L161.04 8.55L160.93 8.60L160.93 8.60Q160.72 8.67 160.59 8.67L160.59 8.67L160.59 8.67Q160.40 8.67 160.29 8.57L160.29 8.57L160.29 8.57Q160.17 8.47 160.17 8.32L160.17 8.32L160.17 8.32Q160.17 8.13 160.32 7.96L160.32 7.96L160.32 7.96Q160.47 7.78 160.76 7.67L160.76 7.67L161.45 7.41L161.45 7.41Q161.57 7.01 161.83 6.38L161.83 6.38L161.83 6.38Q162.22 5.52 162.81 4.89L162.81 4.89L162.81 4.89Q163.39 4.26 164.19 4.07L164.19 4.07Z"></path></g><!----><g data-v-423bf9ae="" id="2df37a6c-4ed5-4973-b1e5-989730847757" transform="matrix(1.0708547280724274,0,0,1.0708547280724274,-0.9010269474765167,-5.423569542253247)" stroke="none" fill="#000A68"><path d="M93 29.42h-6.965l-1.208-10.395c-.85-7.316-14.402-13.047-30.852-13.047H42.026c-16.45 0-30.002 5.731-30.853 13.048L9.965 29.42H3a1.5 1.5 0 0 0-1.5 1.5v16.467a1.5 1.5 0 0 0 1.5 1.5h11.747l5.775 39.851a1.499 1.499 0 0 0 1.484 1.285h51.986c.745 0 1.378-.547 1.484-1.285l5.775-39.851H93a1.5 1.5 0 0 0 1.5-1.5V30.92a1.5 1.5 0 0 0-1.5-1.5zM14.154 19.372c.571-4.917 12.158-10.395 27.872-10.395h11.948c15.714 0 27.301 5.478 27.872 10.395l1.168 10.048h-7.292l-.823-6.954c-.738-6.235-14.41-9.6-26.899-9.6s-26.161 3.365-26.899 9.601l-.823 6.953h-7.292l1.168-10.048zM72.702 29.42H23.298l.781-6.601c.344-2.903 9.61-6.953 23.921-6.953s23.577 4.049 23.921 6.953l.781 6.601zm1.744 45.523H59.533l1.29-12.592H76.27l-1.824 12.592zm-17.928 0H38.78l-1.022-12.592h20.05l-1.29 12.592zM39.762 87.024l-.737-9.081H56.21l-.931 9.081H39.762zM19.729 62.351h15.019l1.022 12.592H21.554l-1.825-12.592zm17.785-3l-.85-10.463h22.523l-1.072 10.463H37.514zm-3.86-10.463l.85 10.463H19.295l-1.517-10.463h15.876zM21.988 77.943h14.026l.737 9.081H23.305l-1.317-9.081zm50.707 9.081h-14.4l.931-9.081h14.786l-1.317 9.081zm4.01-27.673H61.131l1.072-10.463h16.019l-1.517 10.463zM91.5 45.888h-87V32.42h87v13.468z"></path><path d="M16.689 33.966c-2.861 0-5.188 2.327-5.188 5.188s2.327 5.188 5.188 5.188c2.86 0 5.188-2.328 5.188-5.188s-2.327-5.188-5.188-5.188zm0 7.376c-1.207 0-2.188-.982-2.188-2.188s.981-2.188 2.188-2.188c1.206 0 2.188.981 2.188 2.188s-.981 2.188-2.188 2.188zM79.955 44.342c2.861 0 5.188-2.328 5.188-5.188s-2.327-5.188-5.188-5.188c-2.86 0-5.188 2.327-5.188 5.188s2.328 5.188 5.188 5.188zm0-7.376c1.207 0 2.188.981 2.188 2.188s-.981 2.188-2.188 2.188c-1.206 0-2.188-.982-2.188-2.188s.982-2.188 2.188-2.188z"></path></g><!----></svg>