<svg id="Layer_1" enable-background="new 0 0 512 512" height="512" viewBox="0 0 512 512" width="512" xmlns="http://www.w3.org/2000/svg"><path d="m476.358 331.555c-17.638-6.565-41.193-11.364-67.246-13.765 1.353-4.094 2.097-8.464 2.097-13.007 0-10.903-4.995-24.907-14.827-41.668 18.533-9.669 22.706-20.181 22.706-27.666 0-27.609 0-55.233 0-82.835 0-15.268-16.527-25.432-30.391-31.27-8.938-3.764-14.758 10.061-5.821 13.824 10.255 4.318 21.212 11.169 21.212 17.445 0 13.812-49.55 33.874-127.196 33.874s-127.196-20.063-127.196-33.874c0-4.548 6.525-11.901 24.838-18.898 17.973-6.867 43.262-11.772 71.289-13.845 6.02 6.85 14.252 11.695 23.569 13.411v19.332c0 4.143 3.358 7.5 7.5 7.5s7.5-3.357 7.5-7.5v-19.332c9.318-1.716 17.55-6.563 23.571-13.414 12.23.903 23.958 2.339 34.86 4.272 9.262 1.632 11.993-13.108 2.619-14.77-9.256-1.641-19.067-2.933-29.243-3.867 1.354-4.095 2.097-8.465 2.097-13.009 0-12.059-6.088-27.896-18.095-47.074-8.631-13.786-17.151-24.213-17.51-24.649-3.866-3.659-7.732-3.659-11.598 0-.359.437-8.879 10.863-17.51 24.649-12.007 19.178-18.095 35.016-18.095 47.074 0 4.544.744 8.915 2.097 13.01-49.198 4.576-102.889 19.243-102.889 47.109 0 .83.056 1.651.152 2.466-2.891 3.677-9.392 12.218-15.961 22.711-12.007 19.179-18.095 35.017-18.095 47.074 0 4.544.744 8.915 2.097 13.01-49.218 4.58-102.889 19.243-102.889 47.111v76.276c0 6.626.994 14.379 8.363 21.638 7.865 7.748 18.176 12.239 27.227 15.612 8.747 3.256 14.277-10.689 5.237-14.057-7.564-2.818-16.085-6.477-21.938-12.241-2.981-2.937-3.89-5.495-3.89-10.952v-53.194c7.332 5.03 17.285 9.515 29.75 13.343 26.135 8.028 60.742 12.449 97.446 12.449s71.312-4.421 97.447-12.449c12.465-3.829 22.418-8.313 29.75-13.343v21.362c-2.937.956-5.753 1.949-8.404 2.989-9.897 3.88-17.713 8.291-23.23 13.113-6.735 5.887-10.15 12.403-10.15 19.37v24.539c-31.84 8.53-68.222 11.433-111.003 8.858-11.39-.686-22.439-1.833-32.841-3.41-9.589-1.459-11.835 13.376-2.249 14.83 10.847 1.646 22.35 2.841 34.189 3.553 10.332.622 20.311.934 29.968.934 30.258 0 57.32-3.069 81.937-9.263v40.159c0 14.837 15.474 27.433 44.75 36.426 26.135 8.027 60.742 12.448 97.447 12.448s71.312-4.421 97.446-12.448c29.274-8.994 44.748-21.589 44.748-36.426v-80.198c0-9.162-6.184-22.383-35.642-33.347zm-207.458-220.607c0-4.242 3.777-11.504 7.997-17.908 4.216 6.395 7.988 13.649 7.988 17.908 0 4.427-3.585 8.027-7.992 8.027s-7.993-3.6-7.993-8.027zm7.995-73.158c10.567 14.34 26.402 39.168 26.402 54.704 0 5.066-1.428 9.803-3.899 13.832-2.512-12.868-14.149-27.616-16.706-30.734-1.425-1.737-3.553-2.744-5.799-2.744s-4.375 1.007-5.799 2.744c-2.557 3.118-14.194 17.866-16.706 30.734-2.471-4.028-3.899-8.766-3.899-13.832-.001-15.509 15.839-40.354 26.406-54.704zm92.912 212.288c10.567 14.34 26.402 39.169 26.402 54.704 0 4.965-1.372 9.613-3.752 13.589-.058.043-.112.09-.169.135-2.556-12.841-14.134-27.515-16.684-30.625-1.425-1.737-3.553-2.744-5.799-2.744s-4.375 1.007-5.799 2.744c-2.557 3.118-14.194 17.866-16.706 30.733-2.471-4.029-3.899-8.766-3.899-13.832-.001-15.508 15.839-40.353 26.406-54.704zm-7.995 73.158c0-4.241 3.777-11.503 7.997-17.907 4.216 6.395 7.987 13.649 7.987 17.907 0 4.427-3.585 8.027-7.992 8.027s-7.992-3.6-7.992-8.027zm-84.92-121.749c36.705 0 71.312-4.421 97.447-12.449 12.465-3.829 22.417-8.313 29.749-13.343v59.753c0 5.162-7.414 10.711-15.752 14.922-6.755-9.998-12.441-16.957-12.732-17.312-3.866-3.659-7.732-3.659-11.599 0-.358.437-8.879 10.863-17.51 24.649-1.327 2.119-2.569 4.19-3.751 6.227-19.622 3.473-42.02 5.329-64.843 5.382-4.918-5.617-13.238-11.468-26.917-16.826-17.797-6.971-42.326-12.119-69.481-14.619 1.353-4.094 2.096-8.464 2.096-13.007 0-10.298-4.456-23.361-13.232-38.9 2.863 1.065 5.883 2.092 9.077 3.073 26.137 8.029 60.743 12.45 97.448 12.45zm-134.694-31.326c10.567 14.34 26.402 39.169 26.402 54.704 0 5.067-1.428 9.804-3.899 13.833-2.512-12.867-14.149-27.616-16.706-30.734-1.425-1.737-3.553-2.744-5.799-2.744s-4.375 1.007-5.799 2.744c-2.557 3.119-14.194 17.867-16.706 30.734-2.471-4.029-3.899-8.766-3.899-13.833 0-15.508 15.839-40.353 26.406-54.704zm-7.994 73.158c0-4.239 3.774-11.498 7.992-17.9 4.218 6.403 7.992 13.661 7.992 17.9 0 4.427-3.585 8.028-7.992 8.028s-7.992-3.601-7.992-8.028zm7.992 75.54c-77.646 0-127.196-20.063-127.196-33.875 0-4.552 6.533-11.909 24.869-18.91 17.972-6.862 43.248-11.76 71.26-13.832 6.02 6.849 14.251 11.695 23.568 13.41v19.331c0 4.143 3.358 7.5 7.5 7.5s7.5-3.357 7.5-7.5v-19.331c9.445-1.74 17.775-6.697 23.816-13.697.638.238 1.316.399 2.028.456 64.024 5.105 93.852 22.455 93.852 32.573-.001 13.812-49.551 33.875-127.197 33.875zm142.196-33.875c0-.24-.006-.484-.015-.73 17.311-.291 34.29-1.585 49.98-3.805-3.955 9.292-5.957 17.434-5.957 24.333 0 4.543.743 8.913 2.096 13.007-16.678 1.536-32.359 4.071-46.104 7.414zm-6.09 57.327c20.207-3.847 39.665-8.165 60.172-10.456 6.042 7.009 14.377 11.973 23.83 13.714v19.332c0 4.143 3.358 7.5 7.5 7.5s7.5-3.357 7.5-7.5v-19.332c9.315-1.716 17.545-6.56 23.565-13.407 62.744 4.62 96.13 21.786 96.13 32.74 0 13.812-49.55 33.875-127.196 33.875s-127.196-20.063-127.196-33.875c.001-6.293 11.553-15.387 35.695-22.591zm91.502 136.663c-77.646 0-127.196-20.063-127.196-33.874v-57.115c7.332 5.03 17.285 9.514 29.75 13.343 26.135 8.028 60.742 12.449 97.447 12.449s71.312-4.421 97.446-12.449c12.465-3.829 22.418-8.313 29.75-13.343v57.115c-.001 13.811-49.551 33.874-127.197 33.874z"/></svg>