<svg id="Capa_1" enable-background="new 0 0 512.002 512.002" height="512" viewBox="0 0 512.002 512.002" width="512" xmlns="http://www.w3.org/2000/svg"><g><path d="m441.86 190.258c-4.143 0-7.5 3.357-7.5 7.5v147.45c0 4.143 3.357 7.5 7.5 7.5s7.5-3.357 7.5-7.5v-42.286l53.854-22.308c3.831-1.577 5.67-5.968 4.078-9.813l-46.169-111.464c-8.657-20.901-28.87-34.406-51.492-34.406h-40.881c-1.697 0-3.339-.61-4.624-1.719l-10.191-8.789c-2.118-1.827-4.46-3.399-6.958-4.673-2.856-1.457-4.631-4.213-4.63-7.19l.001-4.73c0-16.777-9.69-32.023-24.688-38.843-3.374-1.533-5.404-4.933-5.173-8.661.265-4.265 3.95-7.95 8.189-8.214 3.221-.188 6.059 1.178 7.963 3.855 1.21 1.7 1.486 3.784 1.505 5.235.147 11.544 9.612 21.011 21.573 20.764 11.499-.286 20.698-10.093 20.506-21.861-.466-28.412-24.479-51.872-54.128-50-25.559 1.585-46.029 22.055-47.615 47.613-1.32 21.26 10.315 40.688 29.648 49.531.183.3.133.337.134 5.31.001 2.979-1.773 5.734-4.628 7.19-2.496 1.272-4.838 2.845-6.961 4.675l-10.189 8.788c-1.285 1.108-2.927 1.719-4.624 1.719h-36.262c-1.697 0-3.339-.61-4.624-1.719l-10.192-8.791c-2.121-1.827-4.462-3.399-6.957-4.671-2.856-1.457-4.63-4.213-4.63-7.19l.001-4.73c0-16.777-9.69-32.023-24.688-38.843-3.374-1.533-5.405-4.933-5.174-8.66.266-4.266 3.951-7.951 8.19-8.215 3.245-.193 6.06 1.179 7.963 3.854 1.209 1.7 1.485 3.786 1.505 5.235.148 11.573 9.639 21.012 21.573 20.765 11.5-.286 20.698-10.094 20.505-21.86-.462-28.385-24.451-51.875-54.127-50.001-25.559 1.585-46.029 22.055-47.615 47.613-1.32 21.26 10.315 40.688 29.648 49.531.183.3.133.337.134 5.31 0 2.979-1.773 5.734-4.628 7.19-2.5 1.274-4.842 2.847-6.961 4.675l-10.189 8.788c-1.285 1.108-2.927 1.719-4.624 1.719h-40.332c-22.623 0-42.835 13.505-51.492 34.406l-23.025 55.589c-1.586 3.827.231 8.214 4.059 9.799 3.828 1.589 8.214-.232 9.799-4.059l23.025-55.589c6.328-15.276 21.101-25.146 37.635-25.146h20.817c2.911 25.848 20.208 47.113 43.777 55.777l-31.106 75.098c-1.586 3.827.231 8.214 4.059 9.799l53.876 22.317v194.08h-116.155v-299.244c0-4.143-3.357-7.5-7.5-7.5s-7.5 3.357-7.5 7.5v88.928l-41.207-17.069 6.317-15.252c1.586-3.827-.231-8.214-4.059-9.799-3.823-1.587-8.213.232-9.799 4.059l-9.188 22.181c-1.586 3.827.231 8.214 4.059 9.799l53.876 22.317v201.58c0 4.143 3.357 7.5 7.5 7.5h371.716c4.143 0 7.5-3.357 7.5-7.5v-124.294c0-4.143-3.357-7.5-7.5-7.5s-7.5 3.357-7.5 7.5v116.794h-225.562v-299.244c0-4.143-3.357-7.5-7.5-7.5s-7.5 3.357-7.5 7.5v88.928l-41.207-17.069c3.464-8.362 26.322-63.547 43.302-104.54 2.589-6.25 6.592-11.594 11.55-15.729.302-.209.591-.444.865-.702 7.026-5.539 15.839-8.716 25.219-8.716h20.811c1.917 17.248 10.404 33.115 23.939 44.356 3.185 2.646 7.914 2.208 10.562-.978 2.646-3.187 2.209-7.915-.978-10.562-2.335-1.939-4.476-4.055-6.411-6.32 9.023-1.411 17.533-5.318 24.522-11.345l8.281-7.143h14.103l8.282 7.143c6.981 6.02 15.479 9.925 24.49 11.34-10.951 12.81-27.699 20.014-45.541 18.081-4.128-.457-7.819 2.53-8.265 6.647-.446 4.118 2.529 7.818 6.647 8.265 37.352 4.056 70.255-23.111 74.302-59.485h21.36c16.534 0 31.307 9.871 37.635 25.146l43.301 104.54-41.206 17.069v-88.928c-.001-4.14-3.358-7.498-7.501-7.498zm-284.732-55.687 10.188-8.788c1.21-1.043 2.548-1.94 3.979-2.671 7.905-4.033 12.814-11.909 12.813-20.557l-.001-4.726c0-6.181-3.458-11.748-8.813-14.185-13.689-6.223-21.932-19.96-20.998-34.997 1.119-18.021 15.552-32.454 33.576-33.572 20.951-1.316 37.871 15.238 38.197 35.275.057 3.447-2.69 6.54-5.88 6.619-3.266.118-6.157-2.519-6.202-5.962-.191-14.811-12.295-24.628-25.37-23.869-11.75.73-21.526 10.507-22.257 22.258-.62 9.991 4.851 19.115 13.937 23.245 9.657 4.391 15.896 14.277 15.896 25.188l-.001 4.727c-.001 8.646 4.908 16.522 12.815 20.557 2.6 1.327 3.94 2.638 6.45 4.804-4.283 1.461-8.352 3.433-12.124 5.861-1.116-.546-2.351-.837-3.613-.837h-19.14c-1.986 0-3.904.719-5.368 1.995l-10.189 8.788c-6.202 5.349-14.128 8.295-22.316 8.295h-1.08c-1.569-3.846-2.691-7.9-3.306-12.088h4.387c5.291 0 10.412-1.903 14.42-5.36zm-6.735 31.843c8.987-1.424 17.462-5.324 24.426-11.33l8.281-7.143h5.292c-2.517 3.484-4.66 7.298-6.358 11.396l-9.32 22.499c-8.782-3.113-16.434-8.519-22.321-15.422zm218.358-14.395c-8.188 0-16.114-2.946-22.316-8.295l-10.159-8.761c-1.495-1.304-3.413-2.022-5.4-2.022h-19.143c-1.986 0-3.904.719-5.368 1.995l-10.189 8.788c-6.201 5.35-14.127 8.295-22.316 8.295h-1.149c-1.556-3.862-2.652-7.917-3.251-12.088h4.401c5.292 0 10.413-1.903 14.421-5.36l10.188-8.786c1.212-1.045 2.551-1.943 3.98-2.673 7.905-4.033 12.814-11.909 12.813-20.557l-.001-4.726c0-6.181-3.458-11.748-8.813-14.185-13.689-6.223-21.932-19.96-20.998-34.997 1.119-18.021 15.552-32.454 33.576-33.572 20.957-1.316 37.87 15.244 38.198 35.274.057 3.447-2.691 6.541-5.881 6.62-3.281.117-6.157-2.532-6.202-5.96-.188-14.802-12.293-24.631-25.37-23.871-11.751.73-21.527 10.508-22.256 22.257-.622 9.991 4.849 19.116 13.936 23.246 9.657 4.391 15.896 14.277 15.896 25.188l-.001 4.727c-.001 8.646 4.908 16.522 12.815 20.557 2.826 1.442 3.261 2.052 14.167 11.459 4.008 3.456 9.129 5.359 14.421 5.359h4.4c-.606 4.211-1.715 8.261-3.264 12.088z"/><path d="m353.54 225.187c-4.143 0-7.5 3.357-7.5 7.5v34.49c0 22.015 17.994 39.201 39.16 39.201 21.157 0 39.16-17.179 39.16-39.201v-34.49c0-4.143-3.357-7.5-7.5-7.5zm55.82 41.99c0 19.208-21.542 30.96-37.715 20-6.641-4.5-10.605-11.977-10.605-20v-26.99h48.32z"/></g></svg>