<?xml version="1.0" encoding="iso-8859-1"?>
<!-- Generator: Adobe Illustrator 19.0.0, SVG Export Plug-In . SVG Version: 6.00 Build 0)  -->
<svg version="1.1" id="Capa_1" xmlns="http://www.w3.org/2000/svg" xmlns:xlink="http://www.w3.org/1999/xlink" x="0px" y="0px"
	 viewBox="0 0 512 512" style="enable-background:new 0 0 512 512;" xml:space="preserve">
<g>
	<g>
		<path d="M126.245,98.987c-4.142,0-7.5,3.357-7.5,7.5v0.651c0,4.143,3.358,7.5,7.5,7.5c4.142,0,7.5-3.357,7.5-7.5v-0.651
			C133.745,102.345,130.387,98.987,126.245,98.987z"/>
	</g>
</g>
<g>
	<g>
		<path d="M455.987,32.82l-27.316-15.759C409.324,5.899,387.292,0,364.956,0h-89.128c-5.574,0-10.108,4.534-10.108,10.107v33.901
			c0,5.574,4.534,10.108,10.108,10.108h18.143v36.286h-14.977c-7.319,0-13.274,5.955-13.274,13.274v19.105h-1.574
			c-27.374,0-49.644,22.27-49.644,49.644v162.891c0,4.143,3.358,7.5,7.5,7.5c4.142,0,7.5-3.357,7.5-7.5V172.427
			c0-19.103,15.541-34.644,34.644-34.644h9.074h109.527h9.074c19.103,0,34.644,15.541,34.644,34.644v304.566
			c0,11.032-8.975,20.007-20.007,20.007h-58.459c-4.142,0-7.5,3.357-7.5,7.5s3.358,7.5,7.5,7.5h58.459
			c19.303,0,35.007-15.704,35.007-35.007V172.427c0-27.374-22.27-49.644-49.644-49.644h-1.574v-19.105
			c0-7.319-5.955-13.274-13.274-13.274h-14.977V54.117h88.288c5.238,0,9.668-3.399,11.023-8.459
			C462.662,40.598,460.525,35.439,455.987,32.82z M375.247,105.403v17.38H280.72v-17.38h20.751h53.025H375.247z M308.971,90.403
			V54.117h38.025v36.286H308.971z M354.496,39.117h-53.025H280.72V15h84.236c19.708,0,39.148,5.206,56.218,15.054l15.71,9.063
			H354.496z"/>
	</g>
</g>
<g>
	<g>
		<path d="M327.983,232.527c-32.055,0-58.134,26.079-58.134,58.135v44.655c0,4.143,3.358,7.5,7.5,7.5c4.142,0,7.5-3.357,7.5-7.5
			v-44.655c0-23.784,19.35-43.135,43.134-43.135c23.785,0,43.135,19.351,43.135,43.135v53.459c0,15.184-8.13,29.422-21.217,37.16
			c-3.565,2.108-4.747,6.708-2.639,10.273c1.4,2.367,3.898,3.684,6.463,3.684c1.297,0,2.612-0.337,3.81-1.045
			c17.63-10.425,28.583-29.611,28.583-50.072v-53.459C386.118,258.606,360.039,232.527,327.983,232.527z"/>
	</g>
</g>
<g>
	<g>
		<path d="M282.909,356.17h-80.712v-11.789c0-0.016,0.002-0.032,0.002-0.048v-87.572c0-0.016-0.002-0.032-0.002-0.048V197.83
			c0-14.377-10.604-26.324-24.402-28.43v-12.522c0-6.905-5.617-12.522-12.522-12.522h-2.735V86.417
			c0-8.706-7.083-15.789-15.79-15.789h-41.006c-8.706,0-15.789,7.083-15.789,15.789v57.938h-2.735
			c-6.905,0-12.522,5.617-12.522,12.522v12.533c-12.314,1.905-22.338,11.746-24.125,24.378c-0.58,4.102,2.274,7.896,6.376,8.477
			c4.104,0.588,7.896-2.274,8.477-6.375c0.953-6.739,6.81-11.82,13.624-11.82h3.13c0.007,0,0.013,0.001,0.019,0.001h88.099
			c0.007,0,0.013-0.001,0.019-0.001h3.123c7.587,0,13.76,6.173,13.76,13.76v51.431H65.29v-26.097c0-4.143-3.358-7.5-7.5-7.5
			c-4.142,0-7.5,3.357-7.5,7.5v33.597v87.572V483.24c0,15.858,12.901,28.76,28.76,28.76h2.881c4.142,0,7.5-3.357,7.5-7.5
			s-3.358-7.5-7.5-7.5H79.05c-7.587,0-13.76-6.173-13.76-13.76V351.833h121.906v4.337h-39.175c-28.99,0-52.574,23.585-52.574,52.574
			v11.344v63.023c0,15.93,12.959,28.889,28.888,28.889h182.259c15.929,0,28.888-12.959,28.888-28.889v-63.023v-11.344
			C335.483,379.755,311.899,356.17,282.909,356.17z M104.952,86.417c0-0.436,0.354-0.789,0.789-0.789h41.006
			c0.436,0,0.79,0.354,0.79,0.789v57.938h-42.585V86.417z M162.794,169.07H89.695v-9.715h7.757h57.585h7.757V169.07z M65.29,336.833
			v-72.572h121.906v72.572H65.29z M110.448,408.744c0-20.719,16.856-37.574,37.574-37.574h134.887
			c20.719,0,37.574,16.855,37.574,37.574v3.844H110.448V408.744z M320.484,483.111C320.483,490.77,314.253,497,306.595,497H124.336
			c-7.658,0-13.888-6.23-13.888-13.889v-55.523h210.036V483.111z"/>
	</g>
</g>
<g>
</g>
<g>
</g>
<g>
</g>
<g>
</g>
<g>
</g>
<g>
</g>
<g>
</g>
<g>
</g>
<g>
</g>
<g>
</g>
<g>
</g>
<g>
</g>
<g>
</g>
<g>
</g>
<g>
</g>
</svg>
