<svg id="Capa_1" enable-background="new 0 0 511.997 511.997" height="512" viewBox="0 0 511.997 511.997" width="512" xmlns="http://www.w3.org/2000/svg"><g><path d="m255.998 511.997c102.241 0 185.421-83.179 185.421-185.42 0-85.48-57.32-155.768-133.473-178.018.022-.341.052-.681.052-1.028v-11.417c0-2.448-.582-4.756-1.589-6.821l14.43-16.906c2.688-3.151 2.314-7.885-.836-10.574-3.152-2.689-7.885-2.314-10.573.835l-15.312 17.938c-.388-.046-1.2-.098-1.745-.098h-11.541l14.697-55.694h46.209l-9.587 11.232c-2.688 3.15-2.314 7.884.836 10.573 3.152 2.69 7.886 2.314 10.574-.836l11.479-13.451c6.905-8.087 7.885-20.719-.093-29.095v-.001l-33.719-35.39c-4.738-4.972-11.398-7.826-18.27-7.826h-93.92c-6.873 0-13.532 2.854-18.271 7.829l-33.72 35.391c-7.897 8.291-7.074 20.917-.094 29.094l48.633 56.98c-1.008 2.064-1.589 4.373-1.589 6.821v11.417c0 .347.03.686.052 1.028-75.992 22.204-133.472 92.366-133.472 178.018.001 102.24 83.18 185.419 185.421 185.419zm36.375-376.507c.286 0 .625.253.625.625v11.417c0 .374-.337.625-.625.625h-72.75c-.287 0-.625-.247-.625-.625v-11.417c0-.368.333-.625.625-.625zm-60.392-70.695h48.033l-14.696 55.694h-18.641zm108.514-15h-37.633l14.363-24.423zm-37.537-34.795c.932 0 1.851.14 2.738.388l-16.395 27.877-19.159-28.265zm-27.352 34.795h-39.216l19.607-28.928zm-66.568-34.795h32.816l-19.159 28.265-16.395-27.878c.888-.247 1.806-.387 2.738-.387zm-14.267 10.372 14.363 24.423h-37.633zm-24.513 39.423h46.21l14.696 55.694h-11.541c-.546 0-1.357.052-1.745.098zm42.686 96.857c1.944.922 4.369 1.504 6.679 1.504h72.75c2.252 0 4.687-.56 6.679-1.504 75.156 19.521 127.367 86.893 127.367 164.925 0 93.97-76.45 170.42-170.421 170.42-93.97 0-170.42-76.45-170.42-170.42 0-78.033 52.211-145.405 127.366-164.925z"/><path d="m141.526 20.901-14.033-14.033c-2.93-2.929-7.678-2.929-10.607 0s-2.929 7.678 0 10.606l14.033 14.033c2.93 2.929 7.678 2.929 10.607 0 2.929-2.928 2.929-7.677 0-10.606z"/><path d="m369.621 95.256 14.033 14.033c2.93 2.929 7.678 2.929 10.607 0s2.929-7.678 0-10.606l-14.032-14.033c-2.93-2.929-7.678-2.929-10.607 0-2.93 2.929-2.93 7.678-.001 10.606z"/><path d="m95.674 58.079c0 4.142 3.357 7.5 7.5 7.5h19.846c4.143 0 7.5-3.358 7.5-7.5s-3.357-7.5-7.5-7.5h-19.846c-4.143 0-7.5 3.358-7.5 7.5z"/><path d="m380.627 58.079c0 4.142 3.357 7.5 7.5 7.5h19.847c4.143 0 7.5-3.358 7.5-7.5s-3.357-7.5-7.5-7.5h-19.847c-4.143 0-7.5 3.358-7.5 7.5z"/><path d="m130.919 84.65-14.033 14.033c-2.929 2.929-2.929 7.678 0 10.606 2.93 2.929 7.678 2.929 10.607 0l14.033-14.033c2.929-2.929 2.929-7.678 0-10.606-2.929-2.929-7.677-2.929-10.607 0z"/><path d="m383.654 6.868-14.033 14.033c-2.929 2.929-2.929 7.678 0 10.606 2.93 2.929 7.678 2.929 10.607 0l14.033-14.033c2.929-2.929 2.929-7.678 0-10.606-2.929-2.929-7.677-2.929-10.607 0z"/><path d="m255.998 474.077c76.913 0 140.302-58.937 146.921-134.47.361-4.126-2.69-7.764-6.817-8.125-4.129-.364-7.765 2.69-8.126 6.817-5.933 67.727-63.904 120.779-131.978 120.779-73.061 0-132.5-59.439-132.5-132.5s59.439-132.5 132.5-132.5c65.312 0 120.309 46.715 130.768 111.079.665 4.088 4.52 6.867 8.606 6.2 4.089-.665 6.864-4.517 6.2-8.606-11.437-70.379-72.528-123.672-145.574-123.672-81.332 0-147.5 66.168-147.5 147.5 0 81.33 66.168 147.498 147.5 147.498z"/></g></svg>